<?xml version="1.0" encoding="utf-8"?>
<!-- Generator: Adobe Illustrator 24.1.2, SVG Export Plug-In . SVG Version: 6.00 Build 0)  -->
<svg version="1.1" id="Layer_1" xmlns="http://www.w3.org/2000/svg" xmlns:xlink="http://www.w3.org/1999/xlink" x="0px" y="0px"
	 viewBox="0 0 256 256" style="enable-background:new 0 0 256 256;" xml:space="preserve">
<style type="text/css">
	.st0{fill:#FFFFFF;}
	.st1{fill:#FEE2B8;}
	.st2{fill:#C9937B;}
	.st3{fill:#AD7465;}
	.st4{fill:#85423F;}
	.st5{fill:#4B2326;}
	.st6{fill:#1F111A;}
	.st7{fill:#0C0913;}
</style>
<polygon class="st0" points="229.5,122.5 235,143 237,151 250,161 257,168 253,241 147,257 108,257 59,219 46,186 35,159 
	33.5,142.5 37.5,126.5 45.5,109.5 82.5,83.5 109,75 109.5,89.5 109.5,110.5 115.5,128.5 118.5,144.5 154.5,139.5 158,117 176,103 
	192,91 228,113 "/>
<g>
	<g>
		<path class="st1" d="M144,257c5.08-5.73,3.29-15.56,11.73-19.37c5.39-2.43,10.57-5.3,15.86-7.95c7.2-3.61,14.5-7.02,21.57-10.86
			c3.58-1.94,5.81-2.97,8.96,1.31c3.95,5.36,9.28,9.7,14.08,14.42c0.51,0.5,1.42,0.58,2.14,0.86c0.05-0.77,0.42-1.71,0.1-2.28
			c-2.71-4.94-5.44-9.87-8.38-14.68c-3.06-4.99-1.15-9.74,4.7-11.48c1.47-0.44,2.71-1.59,4.15-2.14c5.3-2.02,10.54-4.31,15.99-5.78
			c10.71-2.89,15.12-7.86,14.84-18.7c-0.16-6.08,3.63-9.56,7.24-13.36c0,1.67,0,3.33,0,5c-5.83,2.04-4.83,6.88-4.97,11.49
			c-0.19,6.3-0.16,12.74-1.54,18.83c-1.27,5.63-4.82,10.72-6.36,16.32c-1.71,6.24-6.51,12.73,0.07,19.32
			c1.09,1.09,0.81,4.79-0.19,6.49c-2.6,4.42-5.96,8.39-9.01,12.54c-16.67,0-33.33,0-50,0c-1.21-4.46-4.32-5.66-8.55-5.01
			c-2.58,0.39-5.31,0.35-7.71,1.23c-1.21,0.44-1.85,2.47-2.74,3.79C158.67,257,151.33,257,144,257z M171.14,237.68
			c-3.7,0.66-6.17,0.46-7.8,1.55c-2.29,1.53-3.96,4-5.89,6.07c2.07,0.43,4.12,0.95,6.21,1.25c1.73,0.25,3.52,0.13,5.26,0.37
			c3.49,0.48,5.87-1.2,5.7-4.41C174.51,240.65,172.12,238.94,171.14,237.68z M200.91,244.22c-1.11-2.14-2.25-4.78-2.47-4.7
			c-2.4,0.81-5.05,1.62-6.85,3.27c-2.34,2.14-3.99,5.04-5.93,7.61c3.68-0.6,7.47-0.87,11-1.96
			C198.27,247.95,199.38,245.81,200.91,244.22z"/>
		<path class="st1" d="M85,257c-3.76-5.57-6.53-12.33-11.49-16.46c-8.42-7.02-12.17-16.33-16.32-25.69
			c-0.6-1.34-1.21-2.69-1.65-4.09c-0.89-2.81-1.08-4.97,2.83-5.93c6.49-1.58,12.84-3.78,19.24-5.71c4.31-1.3,6.41-3.78,4.44-8.4
			c1.7,1.74,3.39,3.48,5.09,5.21c-1.62,3.41-6.81,5.25-4.56,10.42c0.11,0.25-1.22,1.02-1.16,1.43c0.32,2,0.54,5.51,1.41,5.7
			c5.82,1.27,11.78,2.38,17.71,2.49c7.99,0.15,16.02-0.53,24.01-1.14c1.72-0.13,3.34-1.52,5-2.33c-1.62-0.97-3.13-2.45-4.87-2.82
			c-10.92-2.31-21.81-4.52-28.78-14.58c0.14-0.14,0.29-0.27,0.45-0.39c8.89,3.67,17.95,5.57,27.52,2.88
			c0.54-0.15,1.29,0.47,1.94,0.74c-0.86,1.04-1.66,2.15-2.62,3.09c-0.37,0.36-1.09,0.37-1.66,0.54c0.48,0.33,0.95,0.91,1.45,0.94
			c6.55,0.39,13.11,0.93,19.66,0.95c5.01,0.01,8.32-1.9,8.02-8.03c-0.06-1.19,4.06-3,6.49-3.7c1.19-0.35,3.02,1.04,4.4,1.91
			c1.72,1.08,3.27,2.43,4.89,3.66c-1.94,1.1-4.46,1.75-5.69,3.38c-2.3,3.03-3.85,6.64-5.71,10c1.2,0.22,2.58,0.93,3.58,0.57
			c2.61-0.93,5-2.44,7.58-3.45c0.63-0.25,1.71,0.48,2.48,0.94c0.12,0.07-0.14,1.31-0.53,1.65c-8.25,7.06-16.14,14.65-24.98,20.89
			c-6.56,4.62-15.08,6.55-21.4,11.4c-5.04,3.87-12.1,6.5-13.8,13.94C100.33,257,92.67,257,85,257z M139.11,206.93
			c-7.32,0.06-8.04,1.25-5.06,7.44c0.54,1.12,0.3,3.52-0.52,4.23c-4.69,4.03-9.75,7.62-14.48,11.61c-1.17,0.99-2.57,3.34-2.14,4.29
			c1.5,3.33,4.18,3.24,6.89,1.08c1.11-0.89,2.15-1.97,3.41-2.55c7.48-3.44,15.58-5.42,18.7-15.01
			C148.36,210.54,146.88,206.86,139.11,206.93z"/>
		<path class="st2" d="M235,257c3.05-4.15,6.41-8.13,9.01-12.54c1-1.7,1.28-5.4,0.19-6.49c-6.58-6.59-1.78-13.07-0.07-19.32
			c1.53-5.6,5.08-10.69,6.36-16.32c1.37-6.09,1.35-12.53,1.54-18.83c0.14-4.61-0.85-9.45,4.97-11.49c0,14,0,28,0,42
			c-1.49,2.76-3.31,5.39-4.41,8.29c-2.27,6.01-0.53,10.58,4.41,12.71c0,6.5,0.09,13-0.11,19.5c-0.03,0.86-1.53,2.37-2.39,2.39
			C248,257.09,241.5,257,235,257z"/>
		<path class="st3" d="M257,235c-4.94-2.13-6.69-6.7-4.41-12.71c1.1-2.9,2.92-5.54,4.41-8.29C257,221,257,228,257,235z"/>
		<path class="st2" d="M166,257c0.9-1.31,1.53-3.35,2.74-3.79c2.4-0.87,5.13-0.83,7.71-1.23c4.23-0.65,7.34,0.55,8.55,5.01
			C178.67,257,172.33,257,166,257z"/>
		<path class="st3" d="M143.98,64.95c2.02-2.62,4.04-5.24,6.06-7.85c-0.04,0.33-0.08,0.66-0.12,0.99c-0.39,3.06-8.62,8.12,2.14,8.4
			c0.31,0.01,0.46,1.36,0.91,1.54c1.14,0.47,2.9,1.28,3.53,0.8c2.8-2.14,5.1-2.83,7.78,0.23c0.44,0.5,2.8-0.08,3.81-0.81
			c1.41-1.03,2.39-2.67,3.55-4.05c-0.63-0.39-1.23-1.05-1.91-1.14c-5.11-0.67-8.56-3.82-8.16-8.59c0.27-3.22,2.98-6.67,5.47-9.14
			c2.42-2.39,6.81-2.97,8.83-5.53c5.89-7.49,9.54-8.75,18.27-4.87c3.42,1.52,3.71,3.18,1.24,5.98c-1.1,1.25-1.59,3.2-1.95,4.91
			c-0.87,4.14,1.18,5.94,4.4,8.93c4.77,4.43,7.15-1.42,10.49-0.2c-0.11-2.5,0.47-5.29-0.44-7.44c-2.76-6.46-5.82-12.82-9.31-18.9
			c-1.9-3.31-4.91-6-7.41-8.96c0.77-4.76-2.25-6.78-6.02-6.32c-3.36,0.41-6.64,2.36-9.71,4.07c-2.36,1.32-4.35,3.32-6.5,5.02
			c2.67-6.27,7.49-10.48,14.05-11.22c6.09-0.69,10.41,3.11,13.72,8.3c8.91,13.95,15.94,28.35,14.84,45.63
			c-0.26,4,1.33,8.11,2.07,12.17c-2.82-2.54-4.76-1.71-6.53,1.39c-1.17,2.05-3.27,3.61-4.22,5.73c-1.04,2.31-1.63,5.01-1.59,7.52
			c0.02,1,2.25,1.96,3.47,2.94c1.11-1.57,2.25-3.11,3.31-4.71c0.49-0.75,0.81-1.62,1.21-2.43c0.84,0.61,2.23,1.08,2.43,1.86
			c1.57,6.06,2.26,0.09,3.33-0.2c0.91,3.44,2,6.85,2.57,10.35c0.12,0.75-1.58,2.49-2.57,2.59c-2.53,0.25-5.36,0.42-7.64-0.46
			c-2.41-0.93-4.49-2.95-6.41-4.8c-2.79-2.69-3.3-7.62-8.65-7.97c-1.23-0.08-2.89-2.88-3.29-4.67c-2.01-8.9-1.88-8.93-10.49-8.96
			c-0.5,0-0.99-0.03-1.49-0.04c1.67-1,3.36-1.96,4.99-3.03c1-0.66,2.6-1.42,2.66-2.24c0.07-0.92-1.07-2.3-2.04-2.88
			c-4.54-2.69-8.92-0.81-10.62,4.23c-0.36,1.07-1.33,1.94-2.01,2.9c0.15-2.36-0.29-3.62-3.27-2.96c-7.38,1.63-11.26,9.11-7.2,15.68
			c3.58,5.81,8.26,10.93,12.23,16.52c0.4,0.56-0.58,3.12-1.21,3.24c-4.98,0.95-10.09,2.35-15.03,1.98
			c-4.64-0.35-9.11-2.74-13.68-4.15c-0.96-0.3-2.03-0.27-3.05-0.39c-0.03,1.05-0.51,2.45-0.01,3.11
			c4.75,6.22,10.69,10.87,18.68,11.81c3.01,0.35,6.36,0.15,6.83-4.53c0.12-1.22,2.51-2.97,4.02-3.15c3.78-0.45,7.65-0.2,11.47-0.13
			c3.68,0.06,3.55,1.62,2.14,4.5c-0.87,1.78-1.33,4.78-0.4,6.21c1.74,2.66,3.65,5.96,8.3,4.52c2.61-0.81,7.15-1.4,8.24-0.03
			c3.25,4.1,5.33,9.16,7.48,14.02c0.15,0.33-2.83,2.81-4.5,2.98c-2.31,0.24-4.73-1.08-7.12-1.16c-4.38-0.14-5.76-2.8-6.29-6.49
			c-0.13-0.92-0.06-2.15-0.62-2.7c-3.86-3.81-7.76-7.34-14.03-4.92c-1.97,0.76-4.97,0.9-6.68-0.09c-4.4-2.54-7.43-1.27-10.28,2.18
			c0.52-6.99-0.98-9.39-7.72-10.79c-4.14-0.86-8.49-1.44-12.67-1.13c-2.35,0.17-4.56,2.41-6.83,3.72
			c-5.26,2.98-9.14,7.02-10.21,13.23c-0.93,1.61-1.86,3.22-2.79,4.82c0.1-1.96,0.2-3.92,0.3-5.88c0.62-2.35,1.02-4.78,1.92-7.01
			c0.96-2.37,2.09-4.8,3.68-6.77c2.43-2.99,6.16-5.2,7.78-8.5c1.34-2.73,1.46-9,0.36-9.46c-3.45-1.44-8.11-2-11.63-0.84
			c-8.43,2.76-8.57,3.1-11.31-5.31c-0.56-1.7-1.13-3.4-1.69-5.11c-0.17-0.74-0.34-1.48-0.51-2.22c0.22-0.6,0.43-1.21,0.65-1.81
			c0.47-1.41,0.94-2.82,1.41-4.23c0.13-0.59,0.26-1.19,0.39-1.78c0.86-2.08,1.73-4.16,2.59-6.24c0.09-0.57,0.17-1.14,0.26-1.72
			c1.92-0.9,4.13-1.47,5.71-2.78c3.25-2.71,5.94-2.95,9.12,0.15C130.56,75.94,141.56,72.73,143.98,64.95z M183.29,63.13
			c3.16-0.69,6.73-1.35,10.23-2.29c1.12-0.3,2.04-1.35,3.06-2.06c-0.89-0.9-1.68-2.42-2.7-2.59c-3.73-0.63-7.53-0.91-11.31-1.12
			c-2.66-0.15-5.33,0.02-8,0.04c2.5-1.06,5.03-2.07,7.5-3.2c0.65-0.3,1.14-0.94,1.7-1.42c-0.59-0.32-1.19-0.94-1.78-0.92
			c-3.59,0.11-7.27-0.06-10.71,0.75c-1.64,0.39-3.95,2.71-3.95,4.17c0,2.11,1.32,5.49,2.93,6.1
			C174.18,62.09,178.61,62.32,183.29,63.13z M147.05,92.01c2.09-1.91,4.7-3.45,6.03-5.73c1.45-2.49,1.71-5.67,2.49-8.54
			c-3.21,0.14-6.61-0.34-9.59,0.57c-4.12,1.26-7.94,3.54-11.86,5.45c-1.37,0.67-2.65,1.52-3.98,2.29c0.73,1.19,1.31,3.21,2.23,3.38
			c1.5,0.28,3.31-0.45,4.84-1.11c2.11-0.91,4.86-6.23,5.31,1.15C142.56,90.2,144.81,90.8,147.05,92.01z M182.41,45.21
			c1.79-1.15,4.76-2.91,7.56-4.92c0.79-0.57,1.08-1.84,1.61-2.78c-1.13-0.49-2.67-1.7-3.33-1.33c-3.06,1.72-5.95,3.78-8.73,5.92
			c-0.92,0.71-1.35,2.06-2,3.11C178.58,45.21,179.64,45.21,182.41,45.21z M197,76.11c-1.1-2.31-1.67-3.51-2.25-4.72
			c-1.89,1.61-4.22,2.97-5.45,4.99c-0.41,0.68,1.94,3.05,3.03,4.65C193.9,79.38,195.46,77.74,197,76.11z"/>
		<path class="st2" d="M177.03,75.02c0.5,0.01,0.99,0.04,1.49,0.04c8.6,0.03,8.48,0.06,10.49,8.96c0.4,1.79,2.07,4.59,3.29,4.67
			c5.35,0.35,5.86,5.28,8.65,7.97c1.92,1.86,4.01,3.87,6.41,4.8c2.29,0.88,5.11,0.72,7.64,0.46c0.98-0.1,2.69-1.84,2.57-2.59
			c-0.57-3.5-1.66-6.91-2.57-10.35c0.01-1.34,0.02-2.67,0.03-4.01c0.89,2.16,1.9,4.28,2.64,6.5c1.5,4.49,2.86,9.04,4.28,13.56
			c0.08,1.49,0.17,2.99,0.25,4.49c-1.27-0.48-2.52-1.03-3.83-1.41c-0.92-0.27-1.9-0.29-2.85-0.43c0,0-0.25-0.2-0.25-0.2
			c-0.8-0.45-1.59-0.91-2.39-1.37c-3.64-0.99-7.29-1.98-10.93-2.96c-1.7-1.67-3.31-3.43-5.12-4.97c-2.17-1.84-4.65-3.33-6.72-5.27
			c-1.91-1.8-3.73-3.84-5.06-6.08c-0.97-1.64-1.1-3.78-1.6-5.69c-1.89,1.2-3.85,2.3-5.64,3.63c-1.04,0.77-2.47,1.83-2.58,2.87
			c-0.23,2.25,0.29,4.57,0.51,6.87c5.5-0.77,8.5,0.22,7.88,7.18c-0.22,2.46,4.12,5.49,6.65,7.99c8.43,8.33,15.6,17.5,18.66,29.15
			c0.72,2.74,0.86,7.32-0.71,8.57c-2.25,1.79-6.3,1.43-9.61,1.74c-3.17,0.29-6.37,0.25-9.55,0.36c-1.12,0.04-2.26,0-3.35,0.18
			c-1.95,0.32-4.47,0.15-5.73,1.3c-6.69,6.15-16,5.08-20.88-2.76c-0.31-0.5-0.37-1.18-0.46-1.79c-0.24-1.64-0.44-3.28-0.65-4.92
			c-1.76,0.77-3.51,1.53-5.27,2.3c-2.22,0.78-4.44,1.56-6.66,2.34c-0.36-0.07-0.73-0.14-1.09-0.22c3.35-4.3,6.69-8.6,10.04-12.91
			c0.35-0.99,0.71-1.98,1.06-2.96c2.84-3.46,5.87-4.73,10.28-2.19c1.71,0.99,4.71,0.85,6.68,0.09c6.27-2.42,10.17,1.11,14.03,4.92
			c0.56,0.55,0.49,1.77,0.62,2.7c0.53,3.69,1.9,6.35,6.29,6.49c2.39,0.08,4.82,1.4,7.12,1.16c1.66-0.17,4.64-2.65,4.5-2.98
			c-2.15-4.86-4.23-9.92-7.48-14.02c-1.08-1.37-5.62-0.78-8.24,0.03c-4.66,1.44-6.56-1.85-8.3-4.52c-0.93-1.42-0.48-4.43,0.4-6.21
			c1.42-2.89,1.54-4.44-2.14-4.5c-3.83-0.07-7.7-0.32-11.47,0.13c-1.51,0.18-3.9,1.93-4.02,3.15c-0.47,4.68-3.82,4.88-6.83,4.53
			c-7.99-0.94-13.93-5.59-18.68-11.81c-0.5-0.65-0.02-2.05,0.01-3.11c1.02,0.12,2.09,0.09,3.05,0.39c4.57,1.42,9.04,3.8,13.68,4.15
			c4.94,0.37,10.05-1.03,15.03-1.98c0.63-0.12,1.61-2.68,1.21-3.24c-3.97-5.59-8.65-10.71-12.23-16.52
			c-4.06-6.58-0.18-14.06,7.2-15.68c2.98-0.66,3.42,0.61,3.27,2.96C171.76,78.46,174.64,75.08,177.03,75.02z M171.99,147.01
			c2.81-2.06,5.19-3.67,7.39-5.49c0.65-0.54,0.79-1.7,1.16-2.58c-0.86-0.32-1.71-0.85-2.59-0.9c-2.97-0.17-5.96-0.22-8.94-0.2
			c-1.18,0.01-3.08-0.03-3.36,0.57c-0.44,0.95-0.23,2.78,0.46,3.57C167.66,143.73,169.67,145.08,171.99,147.01z M171.58,86.25
			c1.8-2.41,3.08-4.13,4.36-5.84c-0.74-0.41-1.85-1.35-2.17-1.13c-1.67,1.15-3.17,2.56-4.6,4.01
			C169.1,83.36,170.3,84.68,171.58,86.25z"/>
		<path class="st1" d="M152.72,143.79c1.76-0.77,3.51-1.53,5.27-2.3c0.21,1.64,0.41,3.28,0.65,4.92c0.09,0.61,0.14,1.29,0.46,1.79
			c4.88,7.84,14.19,8.9,20.88,2.76c1.25-1.15,3.77-0.98,5.73-1.3c1.1-0.18,2.23-0.14,3.35-0.18c3.19-0.11,6.38-0.07,9.55-0.36
			c3.31-0.3,7.36,0.05,9.61-1.74c1.57-1.25,1.43-5.83,0.71-8.57c-3.06-11.65-10.24-20.82-18.66-29.15c-2.53-2.5-6.87-5.53-6.65-7.99
			c0.62-6.96-2.38-7.95-7.88-7.18c-0.21-2.29-0.73-4.62-0.51-6.87c0.1-1.04,1.54-2.11,2.58-2.87c1.79-1.33,3.75-2.43,5.64-3.63
			c0.5,1.92,0.63,4.06,1.6,5.69c1.34,2.24,3.15,4.28,5.06,6.08c2.06,1.94,4.55,3.43,6.72,5.27c1.81,1.54,3.42,3.3,5.12,4.97
			c-9.36,2.24-10.05,2.77-4.26,10.24c3.99,5.15,10.03,8.81,15.5,12.65c2.54,1.78,4.81,2.37,2.53,6.28
			c-1.45,2.49-1.34,5.96-1.67,9.03c-0.57,5.28-8.29,12.49-13.43,12.35c-11.25-0.3-12.61,0.57-15.51,11.72
			c-1.65,6.38-3.28,12.59-8.77,16.94c-2.2,1.75,0.09,5.46-4.26,7.16c-5.01,1.96-7.87,1.06-11.59-1.98
			c-2.31-1.88-5.78-2.29-8.53-3.73c-1.23-0.65-1.97-2.23-2.93-3.39c1.15-0.82,2.24-2.24,3.45-2.36c10.7-1.05,19.44-5.35,25.05-14.82
			c0.42-0.72-0.52-2.48-1.21-3.52c-0.34-0.52-1.59-0.81-2.3-0.65c-7.58,1.65-11.46-3.98-15.99-8.16c-1.09-1.01-1.23-2.97-2.14-4.25
			C155.09,145.52,153.8,144.73,152.72,143.79z"/>
		<path class="st4" d="M191.14,19.23c2.51,2.97,5.51,5.65,7.41,8.96c3.49,6.09,6.56,12.45,9.31,18.9c0.92,2.15,0.34,4.94,0.44,7.44
			c-3.34-1.22-5.72,4.63-10.49,0.2c-3.21-2.99-5.27-4.79-4.4-8.93c0.36-1.72,0.85-3.67,1.95-4.91c2.48-2.8,2.19-4.46-1.24-5.98
			c-8.73-3.88-12.37-2.61-18.27,4.87c-2.02,2.56-6.41,3.14-8.83,5.53c-2.49,2.47-5.2,5.92-5.47,9.14c-0.4,4.78,3.04,7.93,8.16,8.59
			c0.67,0.09,1.27,0.75,1.91,1.14c-1.16,1.38-2.14,3.02-3.55,4.05c-1,0.73-3.36,1.32-3.81,0.81c-2.68-3.05-4.99-2.37-7.78-0.23
			c-0.63,0.48-2.39-0.33-3.53-0.8c-0.45-0.18-0.6-1.53-0.91-1.54c-10.76-0.28-2.52-5.34-2.14-8.4c0.04-0.33,0.08-0.66,0.12-0.99
			c0.72-1.68,1.44-3.36,2.15-5.04c0.64-0.91,1.35-1.77,1.89-2.73c3.61-6.43,7.19-12.88,10.77-19.32c-0.02,1.58-0.2,3.18-0.02,4.73
			c0.12,1.11,0.72,2.17,1.1,3.25c2.66-1.22,7.11-1.88,7.69-3.75C176.43,25.3,184.25,22.95,191.14,19.23z"/>
		<path class="st3" d="M71.36,61.8c0.25,0.04,0.44,0.16,0.58,0.38c1.11,0.9,2.21,1.79,3.32,2.69c0.27,0,0.5,0.1,0.68,0.31
			c0.93,2.09,2.2,4.11,2.71,6.3c1.12,4.81,2.72,7.01,7.66,3.27c1.21-0.92,3.92,0.14,5.95,0.29c-0.75,1.46-1.13,3.57-2.32,4.24
			c-2.35,1.32-5.24,1.64-7.73,2.77c-2.21,1-4.18,2.53-6.26,3.83l-0.09,0.07c-3.15,1.54-6.95-3.52-9.92,0.95
			c-0.15,0.23-2.3-0.25-2.53-0.8c-1.18-2.86-2.13-5.83-2.84-8.83C60.53,77,63,76.33,64.09,75.56c0.52-0.37,1-1.7,0.73-2.13
			c-2.81-4.55-5.13-9.66-8.87-13.3c-3.44-3.34-8.34-5.31-12.84-7.36c-1.52-0.69-5.45,0.25-5.45,0.42c0.06,6.08-5.05,4.46-8.18,5.67
			c-0.18-0.59-0.36-1.17-0.53-1.76c-0.01-0.74-0.01-1.49-0.02-2.23c-1.11-5.1-2.62-10.17-3.05-15.33c-0.1-1.25,3.67-4.27,5.13-3.96
			c10.29,2.21,18.65,8.06,26.08,15.34c-1.69-0.86-3.37-1.77-5.09-2.57c-0.79-0.37-1.68-0.52-2.52-0.77
			c0.31,0.84,0.38,1.92,0.96,2.48c3.18,3.04,6.53,5.89,9.72,8.91c3.94,3.73,4.01,0.8,4.07-2.28c0.93,0.75,1.85,1.49,2.78,2.24
			C68.45,59.89,69.9,60.84,71.36,61.8z M37.22,44.47c0.02-0.16,0.05-0.32,0.07-0.48c1.62,0.24,3.24,0.52,4.87,0.71
			c0.45,0.05,1.31-0.16,1.32-0.28c0.03-0.59-0.01-1.61-0.32-1.73c-4.18-1.66-8.36-3.38-12.68-4.57c-0.76-0.21-2.17,1.98-3.28,3.06
			c1.07,0.76,2.04,1.87,3.23,2.2C32.63,43.97,34.95,44.12,37.22,44.47z"/>
		<path class="st2" d="M29.48,58.86c3.13-1.21,8.24,0.41,8.18-5.67c0-0.17,3.93-1.11,5.45-0.42c4.5,2.05,9.4,4.02,12.84,7.36
			c3.74,3.63,6.07,8.75,8.87,13.3c0.26,0.43-0.22,1.76-0.73,2.13C63,76.33,60.53,77,60.58,77.25c0.7,3.01,1.66,5.98,2.84,8.83
			c0.23,0.56,2.37,1.03,2.53,0.8c2.97-4.47,6.77,0.58,9.92-0.95c-3.58,6.28-8.99,10.13-15.88,12.04c-0.05-3.04,0.46-6.23-0.29-9.09
			c-1.27-4.86-3.85-2.87-6.91-1.15c-1.4,0.78-4.16-0.87-6.3-1.39c-1.09-0.27-2.2-0.48-3.3-0.71c0.5-0.9,1.06-1.78,1.48-2.71
			c0.33-0.74,0.49-1.55,0.73-2.33c-2.24,0.34-4.5,0.62-6.7,1.16c-0.16,0.04-0.1,2.1,0.29,3.05c2.08,5.04,7.38,8.81,6.02,15.2
			c-1.18,5.57-0.82,9.24,6.08,5.06c-1.39,1.92-2.85,3.8-4.15,5.78c-2.39,3.62-3.42,1.63-4.35-0.98c1.44-9.51-1.79-17.94-5.89-26.22
			c-0.86-1.73-1.12-3.76-1.65-5.66c4.97-1.4,9.94-2.78,14.88-4.27c0.4-0.12,0.93-1.36,0.77-1.54c-0.69-0.8-1.5-1.72-2.46-2.03
			c-3.41-1.12-7.4-1.26-10.25-3.16c-5.73-3.83-6.25-1.45-5.51,3.65C31.47,66.7,30.47,62.78,29.48,58.86z M48.1,64.34
			c-0.69-7.27-5.49-4.52-8.01-5.57c-0.56-0.24-1.97,1.55-2.99,2.4c2.1,1.61,4.04,3.59,6.39,4.66C44.52,66.3,46.39,64.95,48.1,64.34z
			"/>
		<path class="st1" d="M193.51,202.41c-2.33-0.47-4.67-0.94-7-1.41c2.09-1.7,4.14-3.45,6.29-5.07c2.19-1.65,4.51-3.14,6.74-4.75
			c4.36-3.15,8.88-6.11,12.95-9.6c2.3-1.97,3.62-5.03,5.74-7.25c3.29-3.45,7.36-6.24,10.23-9.98c2.48-3.22,3.66-7.42,5.62-11.08
			c0.67-1.26,2.74-3.2,2.88-3.09c2.61,1.94,5.17,4.02,7.31,6.45c0.29,0.33-1.84,2.6-2.6,4.1c-1.67,3.28-3.04,6.72-4.8,9.95
			c-0.89,1.63-2.28,3.05-3.64,4.35c-5.53,5.31-10.93,10.8-16.81,15.7c-3.42,2.85-7.63,4.76-11.54,7c-3.47,1.98-7.01,3.81-10.53,5.7
			C194.08,203.1,193.8,202.76,193.51,202.41z M233.94,166.29c-0.77,0.31-1.12,0.37-1.37,0.56c-3.35,2.53-6.73,5.02-9.98,7.67
			c-0.44,0.36-0.34,1.58-0.18,2.33c0.06,0.26,1.33,0.64,1.58,0.42c3.48-2.98,6.9-6.03,10.25-9.15
			C234.48,167.91,234.07,166.98,233.94,166.29z"/>
		<path class="st2" d="M105.25,91.01c0.56,1.7,1.13,3.4,1.69,5.11c2.74,8.41,2.88,8.07,11.31,5.31c3.52-1.15,8.18-0.6,11.63,0.84
			c1.11,0.46,0.99,6.73-0.36,9.46c-1.62,3.3-5.35,5.51-7.78,8.5c-1.6,1.96-2.73,4.39-3.68,6.77c-0.9,2.23-1.3,4.67-1.92,7.01
			c-0.81-4.67,1.34-10.77-5.93-12.34c-0.8-1.82-1.6-3.64-2.39-5.46c-0.96-3.98-1.86-7.97-2.93-11.92c-0.16-0.59-1.1-0.97-1.67-1.44
			c0.26-3.93,0.53-7.86,0.79-11.78C104.42,91.06,104.84,91.03,105.25,91.01z M109.95,114.59c1.8,1.31,3.89,3.44,4.41,3.11
			c2.36-1.52,4.28-3.72,6.35-5.67c-2.32-1.8-4.64-3.6-6.95-5.39C112.63,108.99,111.5,111.35,109.95,114.59z"/>
		<path class="st5" d="M191.14,19.23c-6.89,3.72-14.72,6.07-17.51,15.02c-0.58,1.87-5.03,2.53-7.69,3.75
			c-0.38-1.08-0.98-2.14-1.1-3.25c-0.18-1.56,0-3.15,0.02-4.73c0.02-0.7,0.05-1.41,0.07-2.11c1.33-1.96,2.65-3.92,3.98-5.89
			c2.15-1.7,4.13-3.7,6.5-5.02c3.07-1.71,6.34-3.66,9.71-4.07C188.9,12.45,191.91,14.47,191.14,19.23z"/>
		<path class="st1" d="M42.57,109.85c0.93,2.61,1.96,4.6,4.35,0.98c1.31-1.98,2.76-3.86,4.15-5.78c2.97-2.36,5.94-4.72,8.9-7.07
			c6.89-1.91,12.31-5.76,15.88-12.04c0,0,0.09-0.07,0.09-0.07c6.69-1.31,13.39-2.62,20.08-3.92c-1.01,2.54-1.86,5.16-3.09,7.59
			c-0.61,1.2-1.93,2.03-2.94,3.03c-0.36-1.17-0.58-2.42-1.12-3.5c-0.36-0.71-1.25-1.76-1.77-1.69c-4.69,0.63-11.07,7.2-12.15,12.22
			c-0.17,0.78-0.35,1.74-0.89,2.22c-0.91,0.81-2.09,1.31-3.16,1.94c0.08-1.21,0.01-2.46,0.28-3.63c0.26-1.16,0.86-2.24,1.31-3.35
			c-1,0.31-2.01,0.6-3.01,0.92c-9.51,3-17.34,8.05-22.13,17.24c-0.5,0.97-3.29,0.74-5.02,1.07C42.42,113.94,42.5,111.9,42.57,109.85
			z"/>
		<path class="st2" d="M33.2,147.93c0.01-2.95,0.01-5.91,0.02-8.86c0.31-0.97,0.63-1.94,0.95-2.9c0,0,0-0.01,0-0.01
			c4.84-0.87,9.69-2.44,14.52-2.4c4.16,0.04,8.29,1.93,12.44,3.01c-2,0.26-4,0.52-6.01,0.78c-3.3,0.2-6.61,0.4-9.91,0.59
			c-1.78-0.39-3.89-1.55-5.25-0.96c-1.66,0.71-3.01,2.74-3.86,4.5c-0.4,0.83,0.7,2.37,1.11,3.59c4.2-3.15,5.98,0.8,8.4,2.87
			c9.26,8.67,19.47,9.83,30.58,3.85c0.27,0.36,0.55,0.72,0.82,1.08c-0.1,0.21-0.16,0.44-0.18,0.67c-0.27,0.43-0.54,0.86-0.8,1.29
			c0,0,0.01-0.01,0.01-0.01c-2.01,0.63-4.03,1.27-6.04,1.9c-7.96,0.63-15.66-0.22-22.83-4.05c-2.03-0.56-4.25-1.9-6.04-1.47
			c-1.67,0.41-2.87,2.7-4.28,4.16c-0.85-1.82-1.7-3.65-2.56-5.47C33.94,149.37,33.56,148.65,33.2,147.93z"/>
		<path class="st2" d="M96.04,81.94c-6.69,1.31-13.39,2.62-20.08,3.92c2.08-1.3,4.05-2.83,6.26-3.83c2.49-1.13,5.38-1.44,7.73-2.77
			c1.19-0.67,1.57-2.78,2.32-4.24c-2.02-0.15-4.73-1.21-5.95-0.29c-4.94,3.74-6.54,1.54-7.66-3.27c-0.51-2.19-1.78-4.2-2.71-6.3
			c4.9,3.28,10.25,4.31,16.02,3.1c1.7,0.07,3.4,0.13,5.1,0.2c0.62-0.04,1.24-0.07,1.87-0.11c2.36,0.75,4.75,1.21,2.19,4.61
			c-1.79,2.38-2.85,5.32-4.23,8.01C96.6,81.3,96.32,81.62,96.04,81.94z"/>
		<path class="st1" d="M77.01,153.07c-0.27-0.36-0.55-0.72-0.82-1.08c0.09-0.82,0.17-1.64,0.26-2.46c0.03-1.15,0.06-2.29,0.1-3.44
			c1.1-3.84-1.31-4.84-4.33-5.34c-2.01-1.09-4.02-2.19-6.02-3.28c-0.76-0.09-1.52-0.19-2.27-0.28c-0.93-0.14-1.86-0.28-2.79-0.43
			c-4.15-1.07-8.28-2.97-12.44-3.01c-4.83-0.05-9.68,1.52-14.52,2.4c1.87-4.01,3.08-7.33,9.49-5.79c9.05,2.18,18.68,1.79,27.92,3.36
			c3.29,0.56,7.56,2.94,8.89,5.69C82.75,144.12,83.07,149.78,77.01,153.07z"/>
		<path class="st1" d="M76.89,184.14c-0.86-2.1-2.75-4.48-2.27-6.21c0.44-1.62,3.25-3.27,5.27-3.67c6.75-1.33,13.58-2.39,20.43-2.95
			c2.63-0.22,5.41,1.13,8.09,1.89c0.37,0.1,0.88,1.17,0.75,1.31c-1.93,2.28-3.95,4.48-5.96,6.7c-0.13-0.13-0.27-0.26-0.4-0.39
			c0.2-0.95,0.41-1.91,0.61-2.86c0.02-0.56,0.05-1.12,0.07-1.68c-0.83,0.22-1.66,0.44-2.49,0.66c-2.29,0.46-4.57,0.93-6.86,1.39
			c-0.67,0.58-1.34,1.15-2.01,1.73c0,0-0.05,0.06-0.05,0.06c-0.72,0.58-1.44,1.15-2.16,1.73c-2.57-0.69-5.17-1.3-7.71-2.1
			c-1.1-0.35-2.09-1.07-3.12-1.62c-0.59,1.33-1.18,2.65-1.76,3.98C77.16,182.8,77.03,183.47,76.89,184.14z"/>
		<path class="st1" d="M110.21,121.68c7.27,1.57,5.12,7.66,5.93,12.34c-0.1,1.96-0.2,3.92-0.3,5.88c0,1.07-0.01,2.14-0.01,3.2
			c-0.07,1.27-0.15,2.54-0.22,3.81c-0.23,1.98-0.75,4-0.5,5.92c0.06,0.47,2.72,1.12,4,0.84c6.91-1.5,13.76-3.26,20.64-4.94
			c0.12,0.13,0.24,0.26,0.35,0.38c-2.48,0.82-4.98,1.57-7.44,2.47c-4.01,1.47-8.11,2.79-11.96,4.61c-4.33,2.05-7.18,0.84-7.66-3.92
			C112.04,142.07,111.15,131.87,110.21,121.68z"/>
		<path class="st4" d="M215.04,84.97c-0.01,1.34-0.02,2.67-0.03,4.01c-1.07,0.29-1.77,6.26-3.33,0.19c-0.2-0.78-1.59-1.25-2.43-1.86
			c-0.4,0.82-0.71,1.68-1.21,2.43c-1.05,1.6-2.2,3.15-3.31,4.71c-1.22-0.98-3.46-1.94-3.47-2.94c-0.04-2.52,0.55-5.21,1.59-7.52
			c0.95-2.11,3.05-3.68,4.22-5.73c1.77-3.1,3.71-3.93,6.53-1.39C214.08,79.58,214.56,82.28,215.04,84.97z"/>
		<path class="st2" d="M143.98,64.95c-2.42,7.78-13.42,10.99-19.11,5.42c-3.18-3.11-5.87-2.87-9.12-0.15
			c-1.58,1.32-3.78,1.88-5.71,2.78c0.78-2.53,1.56-5.06,2.34-7.59c3.76-0.03,7.51-0.06,11.27-0.09c1.47,0.27,2.93,0.53,4.4,0.8
			c0.56,0.02,1.12,0.05,1.69,0.07c1.52,0.02,3.04,0.05,4.56,0.07c0.47,0,0.93,0,1.4,0c1.48-0.05,2.96-0.1,4.44-0.15
			C141.42,65.74,142.7,65.35,143.98,64.95z"/>
		<path class="st3" d="M76.89,184.14c0.14-0.67,0.28-1.34,0.41-2.02c2.51,0.6,5,1.59,7.52,1.65c1.67,0.04,3.38-1.23,5.08-1.92
			c0.72-0.58,1.44-1.15,2.16-1.73c0.12,2.77-1.2,6.51,3.96,5.89c-0.92,1.98-1.83,3.95-2.75,5.93c-1.27,2.51-2.53,5.04-6.12,3.99
			c-1.7-1.74-3.39-3.47-5.09-5.21c-0.26-0.27-0.52-0.53-0.78-0.8c-0.7-0.77-1.41-1.53-2.11-2.3c-0.01-0.2-0.09-0.37-0.24-0.51
			c-0.59-0.82-1.18-1.65-1.78-2.47C77.15,184.44,77.06,184.27,76.89,184.14z"/>
		<path class="st3" d="M32.46,70.62c-0.74-5.1-0.22-7.48,5.51-3.65c2.85,1.9,6.84,2.04,10.25,3.16c0.95,0.31,1.77,1.23,2.46,2.03
			c0.16,0.19-0.37,1.42-0.77,1.54c-4.94,1.49-9.92,2.86-14.88,4.27C34.18,75.52,33.32,73.07,32.46,70.62z"/>
		<path class="st1" d="M112.38,65.42c-0.78,2.53-1.56,5.06-2.34,7.59c-0.09,0.57-0.17,1.14-0.26,1.72c-0.86,2.08-1.73,4.16-2.6,6.24
			c-0.13,0.59-0.26,1.19-0.38,1.78c-0.68,1.14-1.36,2.28-2.04,3.42c-0.43-0.22-1.25-0.49-1.23-0.65c0.74-5.9-1.5-7.33-6.65-4.54
			c1.38-2.69,2.44-5.62,4.23-8.01c2.56-3.4,0.17-3.86-2.19-4.61C103.41,67.38,107.9,66.4,112.38,65.42z"/>
		<path class="st1" d="M54.4,179.14c0.31,0.08,1.19,0.18,1.19,0.32c0.14,3.21,0.63,6.5,0.03,9.58c-0.24,1.25-3.55,3.21-4.34,2.78
			c-2.05-1.11-3.5-3.36-5.15-5.19c-0.17-0.19-0.18-0.82-0.02-0.94C48.81,183.51,51.55,181.38,54.4,179.14z"/>
		<path class="st1" d="M215.52,107.68c0.95,0.13,1.94,0.16,2.85,0.43c1.3,0.38,2.55,0.93,3.83,1.41c-0.08-1.5-0.17-2.99-0.25-4.49
			c5.21,2.57,6.39,7.43,6.87,12.54c0.06,0.6-2.13,1.98-2.18,1.93C222.87,115.63,219.2,111.65,215.52,107.68z"/>
		<path class="st1" d="M33.2,147.93c0.36,0.72,0.74,1.43,1.08,2.16c0.86,1.82,1.71,3.65,2.56,5.47c1.41-1.46,2.62-3.76,4.28-4.16
			c1.79-0.44,4.01,0.9,6.04,1.47c-2.99,2.34-6.02,4.64-8.95,7.05c-0.78,0.64-1.27,1.64-1.9,2.47c-0.47-0.98-1.17-1.92-1.35-2.95
			C34.28,155.62,33.77,151.77,33.2,147.93z"/>
		<path class="st4" d="M64.23,56.7c-0.06,3.07-0.13,6.01-4.07,2.28c-3.19-3.02-6.55-5.88-9.72-8.91c-0.58-0.56-0.66-1.64-0.96-2.48
			c0.84,0.25,1.73,0.41,2.52,0.77c1.72,0.8,3.4,1.71,5.09,2.57C59.46,52.85,61.84,54.78,64.23,56.7z"/>
		<path class="st2" d="M164.93,27.9c-0.02,0.7-0.05,1.41-0.07,2.11c-3.59,6.44-7.16,12.89-10.77,19.32
			c-0.54,0.96-1.26,1.83-1.89,2.73C156.44,44.01,160.69,35.95,164.93,27.9z"/>
		<path class="st1" d="M175.93,208.72c-1.09-0.94-1.94-1.66-2.78-2.39c1.57-1.11,3.04-2.85,4.75-3.12c1.3-0.21,2.9,1.44,4.37,2.26
			C180.29,206.49,178.31,207.5,175.93,208.72z"/>
		<path class="st1" d="M103.22,102.86c0.58,0.48,1.51,0.85,1.67,1.44c1.07,3.95,1.97,7.94,2.93,11.92
			C102.68,114.05,100.69,108.27,103.22,102.86z"/>
		<path class="st1" d="M93.27,191.94c0.92-1.98,1.83-3.95,2.75-5.93c0.92-0.42,1.84-0.84,2.76-1.26c0.14,0.16,0.28,0.32,0.42,0.48
			c-0.95,3.16-1.89,6.31-2.84,9.47c-0.16,0.12-0.31,0.25-0.45,0.39C95.04,194.05,94.16,193,93.27,191.94z"/>
		<path class="st1" d="M70,156.92c2.01-0.63,4.03-1.27,6.04-1.9c-0.93,1.86-1.87,3.71-2.8,5.57C72.16,159.37,71.08,158.14,70,156.92
			z"/>
		<path class="st1" d="M97.06,68.48c-1.7-0.07-3.4-0.13-5.1-0.2C93.65,68.35,95.36,68.41,97.06,68.48z"/>
		<path class="st1" d="M134.3,66.28c-1.52-0.02-3.04-0.05-4.56-0.07C131.26,66.23,132.78,66.25,134.3,66.28z"/>
		<path class="st1" d="M128.06,66.13c-1.47-0.27-2.93-0.54-4.4-0.8C125.12,65.6,126.59,65.87,128.06,66.13z"/>
		<path class="st1" d="M140.14,66.13c-1.48,0.05-2.96,0.1-4.44,0.15C137.18,66.23,138.66,66.18,140.14,66.13z"/>
		<path class="st2" d="M71.36,61.8c-1.45-0.95-2.9-1.91-4.35-2.86C68.45,59.89,69.9,60.84,71.36,61.8z"/>
		<path class="st2" d="M75.25,64.87c-1.11-0.9-2.21-1.8-3.32-2.69C73.04,63.07,74.15,63.97,75.25,64.87z"/>
		<path class="st1" d="M102.25,182.24c-1.02,1-2.03,2-3.05,3c-0.14-0.16-0.28-0.32-0.42-0.48c1-0.99,2-1.98,3-2.96
			C101.94,181.94,102.1,182.09,102.25,182.24z"/>
		<path class="st2" d="M104.77,86.17c0.68-1.14,1.36-2.28,2.04-3.42c-0.47,1.41-0.94,2.82-1.41,4.23
			C105.19,86.71,104.98,86.44,104.77,86.17z"/>
		<path class="st1" d="M144.23,147.27c-1.37,0.61-2.75,1.23-4.12,1.84c-0.12-0.13-0.24-0.25-0.35-0.38c0.22-0.45,0.43-0.9,0.65-1.35
			c1.15-0.19,2.3-0.38,3.45-0.57C143.97,146.96,144.1,147.11,144.23,147.27z"/>
		<path class="st1" d="M34.16,136.16c-0.32,0.97-0.63,1.94-0.95,2.9C33.53,138.1,33.85,137.13,34.16,136.16z"/>
		<path class="st1" d="M212.88,106.1c0.8,0.46,1.59,0.92,2.39,1.37C214.48,107.02,213.68,106.56,212.88,106.1z"/>
		<path class="st1" d="M77.15,184.65c0.59,0.82,1.18,1.65,1.78,2.47C78.34,186.3,77.74,185.47,77.15,184.65z"/>
		<path class="st1" d="M79.17,187.63c0.7,0.77,1.4,1.53,2.11,2.3C80.58,189.16,79.87,188.39,79.17,187.63z"/>
		<path class="st1" d="M105.25,91.01c-0.41,0.02-0.83,0.04-1.24,0.06c0.25-0.76,0.49-1.52,0.73-2.29
			C104.91,89.53,105.08,90.27,105.25,91.01z"/>
		<path class="st1" d="M144.96,145.91c0.36,0.07,0.73,0.14,1.09,0.22c-0.61,0.38-1.22,0.76-1.83,1.14
			c-0.12-0.15-0.25-0.31-0.38-0.46C144.22,146.51,144.59,146.21,144.96,145.91z"/>
		<path class="st2" d="M28.92,54.88c0.01,0.74,0.01,1.49,0.02,2.23C28.94,56.36,28.93,55.62,28.92,54.88z"/>
		<path class="st1" d="M76.03,155.03c0.27-0.43,0.54-0.86,0.8-1.29C76.56,154.17,76.29,154.6,76.03,155.03z"/>
		<path class="st1" d="M103.2,181.21c-0.32,0.34-0.63,0.68-0.95,1.02c-0.15-0.15-0.31-0.29-0.46-0.44c0.34-0.32,0.67-0.65,1.01-0.97
			C102.94,180.95,103.07,181.08,103.2,181.21z"/>
		<path class="st2" d="M171.14,237.68c0.97,1.27,3.37,2.98,3.47,4.82c0.17,3.21-2.21,4.89-5.7,4.41c-1.74-0.24-3.52-0.12-5.26-0.37
			c-2.08-0.3-4.14-0.82-6.21-1.25c1.93-2.07,3.6-4.54,5.89-6.07C164.97,238.14,167.45,238.33,171.14,237.68z"/>
		<path class="st2" d="M200.91,244.22c-1.53,1.59-2.64,3.72-4.26,4.23c-3.53,1.09-7.32,1.36-11,1.96c1.94-2.57,3.59-5.48,5.93-7.61
			c1.81-1.65,4.45-2.46,6.85-3.27C198.66,239.45,199.8,242.08,200.91,244.22z"/>
		<path class="st2" d="M93.27,191.94c0.88,1.05,1.77,2.1,2.65,3.15c6.96,10.07,17.86,12.27,28.78,14.58
			c1.74,0.37,3.25,1.85,4.87,2.82c-1.66,0.81-3.28,2.2-5,2.33c-7.99,0.62-16.01,1.29-24.01,1.14c-5.93-0.11-11.9-1.22-17.71-2.49
			c-0.87-0.19-1.09-3.69-1.41-5.7c-0.07-0.41,1.27-1.18,1.16-1.43c-2.26-5.16,2.93-7.01,4.56-10.42
			C90.75,196.99,92,194.46,93.27,191.94z M96.59,211.68c2.39-0.16,5.95-0.33,9.48-0.68c1.18-0.12,2.3-0.7,3.45-1.07
			c-1.14-0.7-2.3-1.37-3.42-2.1c-3.7-2.41-7.27-5.06-11.15-7.12c-1.2-0.64-3.59-0.22-4.8,0.62c-1.18,0.82-1.5,2.84-2.29,4.28
			c-1.73,3.15-1.03,5.06,2.7,5.49C92.16,211.27,93.75,211.4,96.59,211.68z"/>
		<path class="st2" d="M139.11,206.93c7.77-0.07,9.25,3.61,6.82,11.08c-3.12,9.59-11.23,11.57-18.7,15.01
			c-1.26,0.58-2.3,1.67-3.41,2.55c-2.72,2.16-5.39,2.25-6.89-1.08c-0.43-0.95,0.97-3.31,2.14-4.29c4.73-3.99,9.79-7.58,14.48-11.61
			c0.82-0.71,1.06-3.11,0.52-4.23C131.07,208.19,131.79,206.99,139.11,206.93z"/>
		<path class="st5" d="M118.63,135.07c1.07-6.21,4.95-10.25,10.21-13.23c1.93-0.29,3.9-0.38,5.77-0.9c4.38-1.22,7.27-0.85,7.67,4.77
			c0.14,1.87,2.34,3.6,3.59,5.39c0.02,1.27,0.03,2.55,0.05,3.82c-0.28,0.7-0.57,1.39-0.85,2.09c-2.31,3.12-4.62,6.25-6.93,9.37
			c-2.41-0.04-4.81-0.08-7.22-0.11c-0.68-0.38-1.36-0.76-2.04-1.14C125.47,141.78,122.05,138.42,118.63,135.07z M128.54,124.58
			c-1.82,2.21-4.06,3.71-4.16,5.33c-0.15,2.44,0.79,5.21,2.01,7.43c1.87,3.4,5.01,6.14,8.91,3.6c2.37-1.55,5.46-6.64,5.06-7.05
			C137.14,130.59,133.16,128.02,128.54,124.58z"/>
		<path class="st2" d="M183.29,63.13c-4.68-0.82-9.1-1.04-13.04-2.54c-1.61-0.61-2.93-3.99-2.93-6.1c0-1.45,2.31-3.78,3.95-4.17
			c3.44-0.81,7.12-0.64,10.71-0.75c0.58-0.02,1.18,0.6,1.78,0.92c-0.56,0.48-1.05,1.13-1.7,1.42c-2.47,1.13-5,2.14-7.5,3.2
			c2.67-0.03,5.34-0.2,8-0.04c3.78,0.21,7.58,0.49,11.31,1.12c1.02,0.17,1.81,1.69,2.7,2.59c-1.01,0.71-1.93,1.76-3.06,2.06
			C190.02,61.79,186.45,62.45,183.29,63.13z"/>
		<path class="st4" d="M147.05,92.01c-2.24-1.21-4.48-1.81-4.53-2.54c-0.45-7.38-3.2-2.06-5.31-1.15c-1.53,0.66-3.34,1.39-4.84,1.11
			c-0.92-0.17-1.5-2.19-2.23-3.38c1.32-0.77,2.6-1.62,3.98-2.29c3.92-1.91,7.74-4.18,11.86-5.45c2.98-0.91,6.38-0.43,9.59-0.57
			c-0.78,2.88-1.04,6.06-2.49,8.54C151.75,88.56,149.14,90.1,147.05,92.01z"/>
		<path class="st4" d="M145.88,131.11c-1.26-1.79-3.46-3.52-3.59-5.39c-0.41-5.62-3.29-5.99-7.67-4.77
			c-1.86,0.52-3.84,0.61-5.77,0.9c2.27-1.31,4.47-3.55,6.82-3.72c4.18-0.31,8.53,0.27,12.67,1.13c6.75,1.4,8.25,3.8,7.72,10.79
			c-0.35,0.99-0.71,1.98-1.06,2.96c-1.68-0.87-3.47-1.59-5-2.67c-1.49-1.04-2.71-2.46-4.05-3.72
			C145.93,128.12,145.9,129.61,145.88,131.11z"/>
		<path class="st4" d="M118.63,135.07c3.42,3.35,6.84,6.71,10.26,10.06c-0.93,1.31-1.86,2.63-2.79,3.94
			c-2.07-0.21-4.13-0.42-6.2-0.64c-1.36-1.78-2.71-3.56-4.07-5.34c0-1.07,0.01-2.13,0.01-3.2
			C116.77,138.28,117.7,136.68,118.63,135.07z"/>
		<path class="st4" d="M177.03,75.02c-2.4,0.07-5.27,3.44-7.02-1.01c0.69-0.96,1.65-1.83,2.01-2.9c1.71-5.05,6.08-6.92,10.62-4.23
			c0.97,0.57,2.11,1.96,2.04,2.88c-0.07,0.82-1.66,1.58-2.66,2.24C180.4,73.05,178.7,74.01,177.03,75.02z"/>
		<path class="st2" d="M182.41,45.21c-2.77,0-3.83,0-4.89,0c0.65-1.06,1.08-2.4,2-3.11c2.79-2.15,5.67-4.21,8.73-5.92
			c0.65-0.37,2.2,0.85,3.33,1.33c-0.52,0.95-0.81,2.22-1.61,2.78C187.17,42.3,184.2,44.06,182.41,45.21z"/>
		<path class="st4" d="M197,76.11c-1.54,1.63-3.1,3.27-4.66,4.92c-1.09-1.6-3.45-3.97-3.03-4.65c1.23-2.02,3.55-3.37,5.45-4.99
			C195.33,72.6,195.9,73.8,197,76.11z"/>
		<path class="st2" d="M107.19,80.97c0.87-2.08,1.73-4.16,2.6-6.24C108.92,76.8,108.05,78.88,107.19,80.97z"/>
		<path class="st3" d="M145.88,131.11c0.03-1.5,0.05-2.99,0.08-4.49c1.34,1.25,2.56,2.67,4.05,3.72c1.53,1.08,3.32,1.79,5,2.67
			c-3.35,4.3-6.69,8.61-10.04,12.91c-0.37,0.3-0.74,0.6-1.12,0.9c-1.15,0.19-2.3,0.38-3.45,0.57c-0.75-0.33-1.5-0.66-2.25-1
			c2.31-3.12,4.62-6.25,6.93-9.37c0.28-0.7,0.57-1.39,0.85-2.09C145.91,133.65,145.89,132.38,145.88,131.11z"/>
		<path class="st3" d="M171.99,147.01c-2.32-1.93-4.33-3.28-5.87-5.04c-0.69-0.79-0.9-2.62-0.46-3.57c0.28-0.59,2.18-0.56,3.36-0.57
			c2.98-0.02,5.96,0.03,8.94,0.2c0.88,0.05,1.73,0.59,2.59,0.9c-0.37,0.88-0.51,2.04-1.16,2.58
			C177.18,143.34,174.8,144.95,171.99,147.01z"/>
		<path class="st1" d="M171.58,86.25c-1.28-1.57-2.48-2.88-2.4-2.96c1.42-1.45,2.93-2.86,4.6-4.01c0.31-0.22,1.42,0.72,2.17,1.13
			C174.66,82.12,173.38,83.83,171.58,86.25z"/>
		<path class="st4" d="M37.22,44.47c-2.27-0.34-4.59-0.5-6.78-1.11c-1.19-0.33-2.16-1.44-3.23-2.2c1.11-1.08,2.52-3.27,3.28-3.06
			c4.32,1.19,8.5,2.91,12.68,4.57c0.31,0.12,0.34,1.14,0.32,1.73c-0.01,0.12-0.87,0.33-1.32,0.28c-1.63-0.19-3.25-0.46-4.87-0.71
			C37.27,44.14,37.24,44.31,37.22,44.47z"/>
		<path class="st3" d="M59.98,97.97c-2.97,2.36-5.94,4.72-8.9,7.07c-6.9,4.18-7.26,0.51-6.08-5.06c1.35-6.4-3.94-10.16-6.02-15.2
			c-0.39-0.94-0.45-3.01-0.29-3.05c2.19-0.54,4.45-0.82,6.7-1.16c-0.24,0.78-0.4,1.6-0.73,2.33c-0.42,0.94-0.98,1.81-1.48,2.71
			c1.1,0.24,2.21,0.45,3.3,0.71c2.15,0.52,4.9,2.18,6.3,1.39c3.07-1.72,5.64-3.71,6.91,1.15C60.44,91.74,59.93,94.93,59.98,97.97z"
			/>
		<path class="st1" d="M48.1,64.34c-1.71,0.61-3.58,1.96-4.61,1.49c-2.35-1.08-4.29-3.05-6.39-4.66c1.02-0.85,2.43-2.64,2.99-2.4
			C42.61,59.82,47.4,57.07,48.1,64.34z"/>
		<path class="st2" d="M233.94,166.29c0.13,0.69,0.54,1.61,0.3,1.84c-3.35,3.12-6.77,6.17-10.25,9.15
			c-0.25,0.22-1.53-0.16-1.58-0.42c-0.16-0.75-0.26-1.97,0.18-2.33c3.25-2.65,6.63-5.15,9.98-7.67
			C232.82,166.66,233.18,166.6,233.94,166.29z"/>
		<path class="st3" d="M109.95,114.59c1.55-3.24,2.68-5.6,3.81-7.96c2.32,1.8,4.64,3.6,6.95,5.39c-2.08,1.96-3.99,4.16-6.35,5.67
			C113.85,118.03,111.75,115.9,109.95,114.59z"/>
		<path class="st5" d="M76.45,149.53c-0.09,0.82-0.17,1.64-0.26,2.46c-11.11,5.98-21.31,4.82-30.57-3.85
			c-0.14-3.33-0.27-6.67-0.41-10c3.3-0.2,6.61-0.4,9.91-0.6c-0.38,2.95-1.64,6.16-0.87,8.77c0.74,2.54,3.19,5.52,5.58,6.39
			c2.97,1.08,7.22,1.37,8.23-3.67c0.33-2.02,0.65-4.04,0.98-6.06c0.07-0.44,0.15-0.87,0.22-1.31c0.91,0.1,1.83,0.21,2.74,0.31
			c0.55,0.63,1.11,1.25,1.66,1.88C74.6,145.75,75.52,147.64,76.45,149.53z"/>
		<path class="st6" d="M68.06,149.04c-1.02,5.04-5.26,4.74-8.24,3.66c-2.39-0.87-4.84-3.85-5.58-6.39c-0.77-2.61,0.5-5.82,0.87-8.77
			c2-0.26,4-0.52,6.01-0.78c0.93,0.14,1.86,0.28,2.8,0.43c-0.17,0.29-0.14,0.56,0.08,0.81c-0.37,0.34-0.74,0.68-1.11,1.02
			c-4.59,0.61-5.96,3.31-4.07,7.32C60.98,150.89,63.98,151.58,68.06,149.04z"/>
		<path class="st3" d="M45.2,138.14c0.14,3.33,0.28,6.67,0.41,10c-2.42-2.07-4.2-6.01-8.4-2.87c-0.42-1.22-1.51-2.76-1.11-3.59
			c0.85-1.76,2.2-3.79,3.86-4.5C41.31,136.59,43.43,137.75,45.2,138.14z"/>
		<path class="st2" d="M73.67,143.86c-0.55-0.63-1.11-1.25-1.66-1.88c0.07-0.41,0.14-0.82,0.21-1.23c3.02,0.5,5.43,1.5,4.33,5.34
			C75.58,145.34,74.63,144.6,73.67,143.86z"/>
		<path class="st3" d="M73.67,143.86c0.96,0.74,1.91,1.49,2.87,2.23c-0.03,1.15-0.06,2.3-0.09,3.44
			C75.52,147.64,74.6,145.75,73.67,143.86z"/>
		<path class="st3" d="M72.21,140.75c-0.07,0.41-0.14,0.82-0.21,1.23c-0.91-0.1-1.83-0.21-2.74-0.31c-0.73-0.28-1.46-0.56-2.19-0.85
			c-0.03-0.28-0.06-0.57-0.08-0.85c-0.33-0.62-0.67-1.24-1-1.87c0.07-0.21,0.14-0.42,0.2-0.64
			C68.2,138.56,70.21,139.65,72.21,140.75z"/>
		<path class="st2" d="M64,138c-0.23-0.25-0.25-0.52-0.08-0.81c0.76,0.09,1.52,0.19,2.27,0.28c-0.07,0.21-0.13,0.42-0.2,0.64
			C65.33,138.07,64.66,138.04,64,138z"/>
		<path class="st4" d="M102.8,180.82c-0.34,0.32-0.67,0.65-1.01,0.97c-1,0.99-2,1.98-3,2.96c-0.92,0.42-1.84,0.84-2.76,1.26
			c-5.16,0.62-3.84-3.12-3.96-5.89c0,0,0.05-0.06,0.05-0.06c0.67-0.58,1.34-1.15,2.01-1.73c2.29-0.46,4.57-0.93,6.86-1.39
			c0.81,0.34,1.61,0.68,2.42,1.02C103.21,178.92,103,179.87,102.8,180.82z"/>
		<path class="st2" d="M89.9,181.85c-1.69,0.69-3.4,1.96-5.08,1.92c-2.52-0.07-5.02-1.06-7.52-1.65c0.59-1.33,1.18-2.65,1.77-3.98
			c1.04,0.55,2.02,1.27,3.12,1.62C84.73,180.55,87.33,181.17,89.9,181.85z"/>
		<path class="st3" d="M103.41,177.96c-0.81-0.34-1.61-0.68-2.42-1.02c0.83-0.22,1.66-0.44,2.49-0.66
			C103.46,176.84,103.43,177.4,103.41,177.96z"/>
		<path class="st3" d="M94.13,178.33c-0.67,0.58-1.34,1.15-2.01,1.73C92.79,179.49,93.46,178.91,94.13,178.33z"/>
		<path class="st2" d="M138.15,146.38c0.75,0.33,1.5,0.66,2.25,1c-0.21,0.45-0.43,0.9-0.65,1.35c-6.87,1.67-13.73,3.44-20.64,4.94
			c-1.28,0.28-3.94-0.37-4-0.84c-0.25-1.92,0.26-3.94,0.5-5.92c1.43,0.51,2.86,1.02,4.29,1.52c2.07,0.21,4.13,0.42,6.2,0.64
			c1.61-0.93,3.22-1.87,4.83-2.8C133.34,146.31,135.74,146.34,138.15,146.38z"/>
		<path class="st3" d="M119.9,148.43c-1.43-0.51-2.86-1.02-4.29-1.52c0.07-1.27,0.15-2.54,0.22-3.81
			C117.19,144.87,118.55,146.65,119.9,148.43z"/>
		<path class="st3" d="M96.59,211.68c-2.84-0.28-4.43-0.41-6.01-0.59c-3.73-0.42-4.43-2.33-2.7-5.49c0.79-1.44,1.11-3.45,2.29-4.28
			c1.21-0.84,3.59-1.26,4.8-0.62c3.88,2.07,7.45,4.72,11.15,7.12c1.12,0.73,2.28,1.4,3.42,2.1c-1.15,0.37-2.28,0.95-3.45,1.07
			C102.53,211.34,98.98,211.51,96.59,211.68z"/>
		<path class="st6" d="M128.54,124.58c4.62,3.44,8.59,6.01,11.82,9.32c0.4,0.41-2.69,5.5-5.06,7.05c-3.89,2.54-7.03-0.2-8.91-3.6
			c-1.22-2.22-2.16-4.98-2.01-7.43C124.49,128.28,126.73,126.78,128.54,124.58z"/>
		<path class="st3" d="M130.93,146.27c-1.61,0.93-3.22,1.87-4.83,2.8c0.93-1.31,1.86-2.63,2.79-3.94
			C129.57,145.51,130.25,145.89,130.93,146.27z"/>
		<path class="st4" d="M145.93,134.93c-0.28,0.69-0.57,1.39-0.85,2.09C145.36,136.32,145.64,135.62,145.93,134.93z"/>
		<path class="st7" d="M66.99,139.97c0.02,0.28,0.05,0.57,0.08,0.85c0.66,0.72,1.31,1.43,1.97,2.15c-0.33,2.02-0.66,4.04-0.98,6.06
			c-4.08,2.54-7.08,1.85-9.23-2.7c-1.89-4-0.53-6.71,4.07-7.32C64.26,139.34,65.63,139.66,66.99,139.97z"/>
		<path class="st6" d="M69.04,142.98c-0.66-0.72-1.31-1.43-1.97-2.15c0.73,0.28,1.46,0.56,2.19,0.85
			C69.19,142.11,69.12,142.54,69.04,142.98z"/>
		<path class="st4" d="M66.99,139.97c-1.37-0.32-2.73-0.64-4.1-0.95c0.37-0.34,0.74-0.68,1.11-1.02c0.66,0.03,1.33,0.07,1.99,0.1
			C66.32,138.73,66.66,139.35,66.99,139.97z"/>
	</g>
</g>
</svg>
