<?xml version="1.0" encoding="utf-8"?>
<!-- Generator: Adobe Illustrator 24.1.2, SVG Export Plug-In . SVG Version: 6.00 Build 0)  -->
<svg version="1.1" id="Layer_1" xmlns="http://www.w3.org/2000/svg" xmlns:xlink="http://www.w3.org/1999/xlink" x="0px" y="0px"
	 viewBox="0 0 256 256" style="enable-background:new 0 0 256 256;" xml:space="preserve">
<style type="text/css">
	.st0{fill:#FEFEFC;}
	.st1{fill:#FEE2B8;}
	.st2{fill:#C9937B;}
	.st3{fill:#AD7465;}
	.st4{fill:#85423F;}
	.st5{fill:#4B2326;}
	.st6{fill:#1F111A;}
	.st7{fill:#0C0913;}
</style>
<g>
	<g>
		<path class="st0" d="M143,255.93c-11.99,0-23.98,0-35.98,0c1.69-7.44,8.75-10.07,13.79-13.93c6.32-4.85,14.83-6.77,21.39-11.39
			c8.84-6.23,16.72-13.82,24.97-20.87c0.39-0.34,0.65-1.58,0.53-1.65c-0.77-0.46-1.85-1.18-2.48-0.94
			c-2.58,1.01-4.98,2.52-7.58,3.45c-1,0.36-2.37-0.35-3.57-0.57c1.86-3.36,3.41-6.96,5.7-9.99c1.23-1.63,3.75-2.28,5.69-3.38
			c-1.62-1.23-3.17-2.58-4.89-3.66c-1.38-0.86-3.2-2.25-4.39-1.91c-2.43,0.7-6.55,2.52-6.49,3.7c0.3,6.13-3,8.04-8.01,8.03
			c-6.55-0.02-13.1-0.56-19.65-0.95c-0.5-0.03-0.97-0.61-1.45-0.94c0.56-0.17,1.29-0.17,1.66-0.54c0.96-0.95,1.75-2.05,2.62-3.09
			c-0.65-0.26-1.41-0.89-1.94-0.74c-9.56,2.69-18.62,0.79-27.5-2.88c0.94-3.15,1.89-6.31,2.83-9.46c1.01-1,2.03-2,3.04-3
			c0.32-0.34,0.63-0.68,0.95-1.02c2-2.22,4.02-4.42,5.95-6.7c0.12-0.14-0.39-1.2-0.75-1.31c-2.68-0.75-5.45-2.1-8.08-1.88
			c-6.85,0.56-13.68,1.62-20.42,2.95c-2.01,0.4-4.82,2.04-5.26,3.66c-0.47,1.73,1.41,4.11,2.27,6.2c0.17,0.13,0.26,0.3,0.26,0.51
			c0.59,0.82,1.18,1.65,1.78,2.47c0.15,0.13,0.23,0.3,0.24,0.51c0.7,0.77,1.41,1.53,2.11,2.3c0.26,0.27,0.52,0.53,0.78,0.8
			c1.96,4.62-0.13,7.09-4.44,8.39c-6.4,1.94-12.74,4.13-19.23,5.71c-3.91,0.95-3.72,3.12-2.83,5.92c0.44,1.39,1.06,2.74,1.65,4.08
			c4.15,9.35,7.89,18.66,16.31,25.67c4.95,4.13,7.72,10.88,11.48,16.45c-26.8,0-53.6-0.05-80.39,0.07C0.82,256.01,0,255.62,0,252.49
			C0.12,169.6,0.12,86.71,0.01,3.83c0-3.19,0.8-3.8,3.86-3.79C86.59,0.13,169.31,0.14,252.03,0c3.64-0.01,3.97,1.03,3.97,4.21
			c-0.11,53.93-0.08,107.85-0.08,161.78c-3.61,3.79-7.4,7.28-7.24,13.35c0.28,10.83-4.13,15.79-14.83,18.69
			c-5.45,1.47-10.68,3.76-15.98,5.78c-1.45,0.55-2.69,1.7-4.15,2.13c-5.84,1.74-7.75,6.49-4.7,11.47c2.94,4.8,5.66,9.73,8.37,14.67
			c0.31,0.57-0.05,1.51-0.1,2.28c-0.72-0.28-1.63-0.36-2.14-0.86c-4.79-4.72-10.13-9.05-14.07-14.41c-3.15-4.28-5.38-3.25-8.96-1.31
			c-7.07,3.84-14.36,7.25-21.56,10.85c-5.28,2.65-10.47,5.52-15.85,7.94C146.28,240.38,148.08,250.2,143,255.93z M143.22,146.27
			c0.61-0.38,1.22-0.76,1.83-1.14c2.22-0.78,4.44-1.56,6.66-2.34c1.08,0.94,2.36,1.73,3.18,2.86c0.92,1.28,1.05,3.24,2.14,4.25
			c4.52,4.18,8.41,9.8,15.98,8.15c0.72-0.16,1.96,0.14,2.3,0.65c0.68,1.04,1.63,2.8,1.2,3.52c-5.61,9.47-14.34,13.76-25.04,14.81
			c-1.22,0.12-2.3,1.54-3.45,2.36c0.96,1.16,1.7,2.74,2.93,3.39c2.75,1.45,6.21,1.85,8.52,3.73c3.73,3.04,6.58,3.93,11.59,1.98
			c4.34-1.7,2.05-5.41,4.25-7.16c5.48-4.35,7.11-10.56,8.76-16.93c2.89-11.14,4.25-12.01,15.5-11.71
			c5.14,0.14,12.85-7.06,13.42-12.34c0.33-3.06,0.22-6.53,1.67-9.02c2.28-3.91,0.01-4.49-2.52-6.28
			c-5.46-3.84-11.51-7.5-15.49-12.64c-5.79-7.47-5.1-8,4.26-10.23c3.64,0.99,7.28,1.97,10.93,2.96c0.8,0.46,1.59,0.91,2.39,1.37
			l0.25,0.2c3.67,3.97,7.34,7.94,11.11,11.81c0.05,0.05,2.23-1.33,2.18-1.93c-0.48-5.11-1.65-9.96-6.86-12.53
			c-1.42-4.52-2.77-9.06-4.27-13.55c-0.74-2.21-1.75-4.33-2.64-6.49c-0.48-2.69-0.96-5.39-1.44-8.08
			c-0.74-4.06-2.32-8.17-2.07-12.16c1.1-17.26-5.92-31.65-14.83-45.6c-3.31-5.19-7.63-8.98-13.72-8.29
			c-6.56,0.74-11.37,4.95-14.04,11.21c-1.33,1.96-2.65,3.92-3.98,5.88c-4.24,8.05-8.49,16.1-12.73,24.15
			c-0.72,1.68-1.44,3.35-2.15,5.03c-2.02,2.62-4.04,5.23-6.06,7.85c-1.28,0.39-2.56,0.78-3.84,1.17c-1.48,0.05-2.96,0.1-4.43,0.15
			c-0.47,0-0.93,0-1.4-0.01c-1.52-0.02-3.04-0.05-4.56-0.07c-0.56-0.02-1.12-0.05-1.68-0.07c-1.47-0.27-2.93-0.53-4.4-0.8
			c-3.75,0.03-7.51,0.06-11.26,0.09c-4.48,0.98-8.97,1.96-13.45,2.95c-0.62,0.04-1.24,0.07-1.87,0.11c-1.7-0.07-3.4-0.13-5.1-0.2
			c-5.77,1.21-11.11,0.18-16.01-3.1c-0.18-0.21-0.41-0.31-0.68-0.31c-1.11-0.9-2.21-1.79-3.32-2.69c-0.14-0.21-0.33-0.34-0.58-0.38
			c-1.45-0.95-2.9-1.91-4.35-2.86c-0.93-0.75-1.85-1.49-2.78-2.24c-2.38-1.92-4.76-3.84-7.14-5.76
			c-7.42-7.27-15.78-13.12-26.06-15.33c-1.45-0.31-5.23,2.71-5.12,3.95c0.43,5.16,1.94,10.22,3.05,15.32
			c0.01,0.74,0.01,1.49,0.02,2.23c0.18,0.59,0.36,1.17,0.53,1.76c0.99,3.91,1.99,7.83,2.98,11.74c0.86,2.45,1.71,4.9,2.57,7.35
			c0.53,1.89,0.79,3.92,1.65,5.65c4.1,8.27,7.32,16.7,5.89,26.2c-0.08,2.04-0.15,4.09-0.23,6.13c1.73-0.33,4.52-0.1,5.02-1.07
			c4.79-9.18,12.61-14.23,22.12-17.23c1-0.32,2-0.61,3.01-0.92c-0.45,1.11-1.05,2.19-1.31,3.35c-0.27,1.17-0.2,2.42-0.28,3.63
			c1.07-0.63,2.26-1.13,3.16-1.94c0.53-0.48,0.72-1.44,0.89-2.21c1.08-5.01,7.45-11.57,12.14-12.21c0.52-0.07,1.41,0.98,1.77,1.69
			c0.54,1.08,0.76,2.32,1.12,3.5c1-1,2.32-1.83,2.93-3.03c1.23-2.42,2.08-5.04,3.09-7.58c0.28-0.32,0.56-0.64,0.85-0.95
			c5.15-2.78,7.39-1.35,6.65,4.54c-0.02,0.16,0.8,0.43,1.23,0.65c0.21,0.27,0.42,0.54,0.63,0.81c-0.22,0.6-0.43,1.21-0.65,1.81
			c-0.24,0.76-0.49,1.52-0.73,2.29c-0.26,3.92-0.53,7.85-0.79,11.77c-2.52,5.4-0.53,11.18,4.6,13.35c0.8,1.82,1.6,3.63,2.39,5.45
			c0.94,10.19,1.83,20.38,2.84,30.57c0.47,4.75,3.32,5.96,7.65,3.92c3.85-1.82,7.94-3.14,11.95-4.6c2.45-0.89,4.95-1.65,7.43-2.47
			C140.48,147.5,141.85,146.89,143.22,146.27z M75.07,154.03c0.27-0.43,0.53-0.86,0.8-1.29c0.02-0.23,0.08-0.46,0.18-0.67
			c6.06-3.28,5.73-8.94,3.46-13.63c-1.33-2.75-5.6-5.13-8.89-5.69c-9.23-1.57-18.86-1.19-27.9-3.36c-6.41-1.54-7.62,1.78-9.49,5.78
			l0,0.01c-0.31,0.97-0.63,1.94-0.94,2.9c-0.01,2.95-0.01,5.91-0.02,8.86c0.57,3.84,1.08,7.68,1.76,11.5
			c0.18,1.03,0.89,1.97,1.35,2.95c0.62-0.83,1.12-1.83,1.9-2.47c2.93-2.41,5.95-4.7,8.94-7.04c7.17,3.83,14.86,4.68,22.82,4.05
			c1.08,1.22,2.16,2.45,3.24,3.67c0.93-1.86,1.87-3.71,2.8-5.57C75.08,154.02,75.07,154.03,75.07,154.03z M192.48,201.38
			c0.29,0.34,0.57,0.68,0.86,1.03c3.51-1.89,7.06-3.72,10.52-5.7c3.91-2.23,8.12-4.14,11.53-6.99c5.88-4.9,11.27-10.39,16.8-15.69
			c1.36-1.31,2.74-2.72,3.63-4.35c1.77-3.22,3.14-6.66,4.8-9.94c0.76-1.5,2.89-3.77,2.6-4.1c-2.14-2.43-4.7-4.5-7.31-6.45
			c-0.14-0.11-2.21,1.83-2.88,3.09c-1.96,3.65-3.14,7.85-5.62,11.07c-2.87,3.73-6.93,6.53-10.23,9.97
			c-2.12,2.22-3.44,5.28-5.74,7.24c-4.07,3.49-8.59,6.45-12.94,9.59c-2.22,1.61-4.54,3.09-6.73,4.74c-2.15,1.62-4.19,3.37-6.28,5.07
			C187.81,200.44,190.14,200.91,192.48,201.38z M53.46,178.12c-2.85,2.24-5.59,4.36-8.28,6.54c-0.16,0.13-0.15,0.76,0.02,0.94
			c1.65,1.83,3.09,4.08,5.15,5.19c0.79,0.43,4.09-1.53,4.33-2.78c0.6-3.08,0.11-6.37-0.03-9.57
			C54.64,178.3,53.77,178.2,53.46,178.12z M174.9,207.68c2.38-1.22,4.36-2.23,6.34-3.24c-1.47-0.82-3.07-2.47-4.37-2.26
			c-1.7,0.27-3.17,2.01-4.74,3.12C172.97,206.02,173.81,206.74,174.9,207.68z"/>
		<path class="st1" d="M143,255.93c5.08-5.73,3.28-15.55,11.72-19.36c5.38-2.43,10.57-5.3,15.85-7.94
			c7.19-3.6,14.49-7.01,21.56-10.85c3.58-1.94,5.81-2.97,8.96,1.31c3.94,5.36,9.28,9.69,14.07,14.41c0.51,0.5,1.42,0.58,2.14,0.86
			c0.05-0.77,0.42-1.71,0.1-2.28c-2.71-4.93-5.43-9.87-8.37-14.67c-3.05-4.99-1.14-9.73,4.7-11.47c1.46-0.44,2.7-1.58,4.15-2.13
			c5.3-2.01,10.53-4.3,15.98-5.78c10.7-2.89,15.11-7.86,14.83-18.69c-0.16-6.07,3.63-9.56,7.24-13.35c0,1.67,0,3.33,0,5
			c-5.82,2.04-4.83,6.88-4.97,11.49c-0.19,6.3-0.16,12.74-1.54,18.82c-1.27,5.63-4.82,10.71-6.35,16.31
			c-1.71,6.24-6.51,12.72,0.07,19.3c1.09,1.09,0.81,4.79-0.19,6.49c-2.6,4.41-5.95,8.39-9,12.54c-16.66,0-33.31,0-49.97,0
			c-1.21-4.46-4.32-5.66-8.54-5.01c-2.58,0.39-5.3,0.35-7.7,1.22c-1.21,0.44-1.84,2.47-2.74,3.79
			C157.65,255.93,150.33,255.93,143,255.93z M170.12,236.62c-3.69,0.66-6.17,0.46-7.79,1.54c-2.29,1.53-3.96,4-5.89,6.06
			c2.07,0.43,4.12,0.95,6.2,1.25c1.73,0.25,3.52,0.13,5.26,0.37c3.49,0.48,5.87-1.2,5.69-4.41
			C173.49,239.59,171.1,237.88,170.12,236.62z M199.87,243.16c-1.11-2.14-2.25-4.77-2.47-4.7c-2.4,0.81-5.04,1.62-6.85,3.27
			c-2.34,2.14-3.98,5.04-5.93,7.61c3.68-0.6,7.46-0.87,10.99-1.96C197.23,246.88,198.34,244.75,199.87,243.16z"/>
		<path class="st1" d="M84.04,255.93c-3.75-5.57-6.52-12.32-11.48-16.45c-8.42-7.02-12.16-16.32-16.31-25.67
			c-0.6-1.34-1.21-2.69-1.65-4.08c-0.89-2.8-1.08-4.97,2.83-5.92c6.49-1.58,12.83-3.77,19.23-5.71c4.31-1.3,6.4-3.78,4.44-8.39
			c1.7,1.74,3.39,3.47,5.09,5.21c-1.62,3.41-6.81,5.25-4.55,10.41c0.11,0.25-1.22,1.02-1.16,1.43c0.32,2,0.54,5.5,1.41,5.69
			c5.81,1.27,11.77,2.38,17.7,2.49c7.99,0.15,16.01-0.53,23.99-1.14c1.72-0.13,3.33-1.52,5-2.33c-1.62-0.97-3.12-2.45-4.87-2.82
			c-10.91-2.31-21.8-4.51-28.76-14.57c0.14-0.14,0.29-0.27,0.45-0.39c8.88,3.67,17.94,5.57,27.5,2.88c0.54-0.15,1.29,0.47,1.94,0.74
			c-0.86,1.04-1.66,2.14-2.62,3.09c-0.37,0.36-1.09,0.37-1.66,0.54c0.48,0.33,0.95,0.91,1.45,0.94c6.55,0.39,13.1,0.93,19.65,0.95
			c5.01,0.01,8.32-1.9,8.01-8.03c-0.06-1.18,4.06-3,6.49-3.7c1.19-0.35,3.02,1.04,4.39,1.91c1.72,1.08,3.27,2.43,4.89,3.66
			c-1.94,1.09-4.45,1.75-5.69,3.38c-2.3,3.03-3.84,6.63-5.7,9.99c1.2,0.22,2.58,0.93,3.57,0.57c2.6-0.93,5-2.44,7.58-3.45
			c0.63-0.25,1.71,0.48,2.48,0.94c0.12,0.07-0.14,1.31-0.53,1.65c-8.25,7.05-16.13,14.64-24.97,20.87
			c-6.55,4.62-15.07,6.55-21.39,11.39c-5.04,3.86-12.1,6.49-13.79,13.93C99.36,255.93,91.7,255.93,84.04,255.93z M138.11,205.89
			c-7.31,0.06-8.04,1.25-5.06,7.43c0.54,1.11,0.3,3.51-0.52,4.22c-4.68,4.03-9.74,7.62-14.47,11.6c-1.17,0.99-2.57,3.34-2.14,4.29
			c1.5,3.32,4.17,3.24,6.89,1.08c1.11-0.89,2.15-1.97,3.41-2.55c7.47-3.43,15.57-5.42,18.69-15
			C147.36,209.5,145.87,205.83,138.11,205.89z"/>
		<path class="st2" d="M233.93,255.93c3.05-4.15,6.4-8.12,9-12.54c1-1.7,1.28-5.39,0.19-6.49c-6.58-6.59-1.77-13.06-0.07-19.3
			c1.53-5.6,5.08-10.69,6.35-16.31c1.37-6.08,1.35-12.52,1.54-18.82c0.14-4.61-0.85-9.44,4.97-11.49c0,13.99,0,27.98,0,41.97
			c-1.49,2.75-3.31,5.38-4.41,8.29c-2.27,6-0.53,10.57,4.41,12.7c0,6.5,0.09,12.99-0.11,19.48c-0.03,0.86-1.53,2.36-2.39,2.39
			C246.93,256.02,240.43,255.93,233.93,255.93z"/>
		<path class="st3" d="M255.92,233.94c-4.94-2.13-6.69-6.7-4.41-12.7c1.1-2.9,2.92-5.53,4.41-8.29
			C255.92,219.95,255.92,226.95,255.92,233.94z"/>
		<path class="st2" d="M164.98,255.93c0.89-1.31,1.53-3.35,2.74-3.79c2.4-0.87,5.12-0.83,7.7-1.22c4.22-0.65,7.33,0.55,8.54,5.01
			C177.64,255.93,171.31,255.93,164.98,255.93z"/>
		<path class="st3" d="M142.97,64.02c2.02-2.62,4.04-5.23,6.06-7.85c-0.04,0.33-0.08,0.66-0.12,0.99c-0.39,3.06-8.62,8.11,2.14,8.39
			c0.31,0.01,0.46,1.36,0.91,1.54c1.14,0.47,2.9,1.28,3.53,0.8c2.79-2.14,5.1-2.82,7.78,0.23c0.44,0.5,2.8-0.08,3.8-0.81
			c1.41-1.03,2.39-2.67,3.55-4.04c-0.63-0.39-1.23-1.05-1.91-1.14c-5.11-0.67-8.55-3.82-8.15-8.59c0.27-3.22,2.98-6.67,5.47-9.13
			c2.41-2.39,6.81-2.97,8.82-5.53c5.89-7.48,9.53-8.74,18.25-4.87c3.42,1.52,3.71,3.18,1.23,5.98c-1.1,1.25-1.59,3.19-1.95,4.91
			c-0.87,4.14,1.18,5.93,4.39,8.92c4.77,4.43,7.15-1.42,10.48-0.2c-0.11-2.5,0.47-5.28-0.44-7.43c-2.75-6.45-5.82-12.81-9.31-18.89
			c-1.9-3.31-4.9-5.99-7.41-8.96c0.77-4.75-2.24-6.78-6.02-6.31c-3.36,0.41-6.63,2.36-9.7,4.07c-2.36,1.32-4.34,3.32-6.49,5.02
			c2.67-6.26,7.48-10.47,14.04-11.21c6.09-0.69,10.4,3.11,13.72,8.29c8.91,13.94,15.93,28.33,14.83,45.6
			c-0.26,3.99,1.33,8.1,2.07,12.16c-2.82-2.54-4.76-1.71-6.52,1.39c-1.17,2.05-3.27,3.61-4.22,5.72c-1.04,2.31-1.63,5.01-1.59,7.52
			c0.02,1,2.25,1.96,3.47,2.94c1.11-1.57,2.25-3.11,3.3-4.71c0.49-0.75,0.81-1.62,1.21-2.43c0.84,0.61,2.22,1.08,2.42,1.86
			c1.57,6.06,2.26,0.09,3.33-0.19c0.9,3.44,2,6.85,2.57,10.34c0.12,0.75-1.58,2.49-2.57,2.58c-2.53,0.25-5.35,0.42-7.64-0.46
			c-2.4-0.93-4.49-2.95-6.41-4.8c-2.79-2.69-3.3-7.62-8.64-7.96c-1.23-0.08-2.89-2.88-3.29-4.67c-2.01-8.89-1.88-8.92-10.48-8.95
			c-0.5,0-0.99-0.03-1.49-0.04c1.67-1,3.36-1.96,4.99-3.03c1-0.66,2.59-1.42,2.66-2.24c0.07-0.92-1.06-2.3-2.04-2.88
			c-4.54-2.69-8.91-0.81-10.62,4.23c-0.36,1.07-1.32,1.94-2.01,2.9c0.15-2.35-0.29-3.62-3.27-2.96c-7.38,1.63-11.25,9.1-7.19,15.67
			c3.58,5.8,8.26,10.92,12.23,16.51c0.4,0.56-0.58,3.12-1.21,3.24c-4.97,0.95-10.08,2.35-15.02,1.98c-4.63-0.35-9.1-2.74-13.67-4.15
			c-0.96-0.3-2.03-0.27-3.05-0.39c-0.03,1.05-0.5,2.45-0.01,3.1c4.75,6.21,10.68,10.86,18.67,11.8c3.01,0.35,6.36,0.15,6.82-4.53
			c0.12-1.22,2.51-2.97,4.02-3.15c3.77-0.45,7.64-0.2,11.47-0.13c3.68,0.06,3.55,1.62,2.13,4.5c-0.87,1.78-1.33,4.78-0.4,6.2
			c1.74,2.66,3.64,5.95,8.3,4.51c2.61-0.81,7.15-1.4,8.23-0.03c3.25,4.09,5.32,9.15,7.47,14.01c0.14,0.33-2.83,2.81-4.49,2.98
			c-2.3,0.24-4.73-1.08-7.12-1.15c-4.38-0.14-5.76-2.8-6.28-6.49c-0.13-0.92-0.06-2.15-0.62-2.7c-3.86-3.81-7.75-7.33-14.02-4.92
			c-1.97,0.76-4.97,0.9-6.68-0.09c-4.4-2.54-7.43-1.27-10.27,2.18c0.52-6.99-0.98-9.39-7.72-10.78c-4.14-0.86-8.48-1.44-12.66-1.13
			c-2.35,0.17-4.55,2.41-6.82,3.72c-5.26,2.97-9.14,7.01-10.21,13.22c-0.93,1.61-1.86,3.21-2.79,4.82c0.1-1.96,0.2-3.92,0.3-5.88
			c0.62-2.34,1.02-4.78,1.92-7.01c0.96-2.37,2.08-4.8,3.68-6.76c2.43-2.99,6.15-5.19,7.78-8.49c1.34-2.73,1.46-9,0.36-9.46
			c-3.45-1.44-8.11-1.99-11.63-0.84c-8.42,2.76-8.56,3.1-11.3-5.31c-0.56-1.7-1.12-3.4-1.69-5.1c-0.17-0.74-0.34-1.48-0.51-2.22
			c0.22-0.6,0.43-1.21,0.65-1.81c0.47-1.41,0.94-2.82,1.41-4.23c0.13-0.59,0.26-1.18,0.39-1.78c0.86-2.08,1.73-4.16,2.59-6.24
			c0.09-0.57,0.17-1.14,0.26-1.71c1.92-0.9,4.13-1.47,5.7-2.78c3.24-2.71,5.94-2.95,9.11,0.15C129.57,75,140.56,71.79,142.97,64.02z
			 M182.26,62.2c3.16-0.69,6.73-1.35,10.22-2.29c1.12-0.3,2.04-1.35,3.05-2.06c-0.89-0.9-1.68-2.41-2.7-2.59
			c-3.73-0.63-7.52-0.91-11.3-1.12c-2.66-0.15-5.33,0.02-8,0.04c2.5-1.06,5.03-2.07,7.5-3.2c0.65-0.3,1.13-0.94,1.7-1.42
			c-0.59-0.32-1.19-0.94-1.78-0.92c-3.59,0.11-7.26-0.06-10.7,0.75c-1.64,0.38-3.95,2.71-3.95,4.16c0,2.11,1.32,5.48,2.92,6.09
			C173.16,61.16,177.58,61.38,182.26,62.2z M146.04,91.05c2.09-1.91,4.7-3.45,6.03-5.73c1.45-2.49,1.71-5.66,2.49-8.54
			c-3.21,0.14-6.61-0.34-9.58,0.57c-4.12,1.26-7.94,3.54-11.85,5.44c-1.37,0.67-2.65,1.52-3.97,2.29c0.73,1.19,1.31,3.21,2.23,3.38
			c1.5,0.28,3.31-0.45,4.83-1.11c2.11-0.91,4.86-6.23,5.31,1.15C141.56,89.24,143.8,89.84,146.04,91.05z M181.38,44.29
			c1.79-1.15,4.76-2.91,7.56-4.92c0.79-0.57,1.08-1.84,1.6-2.78c-1.13-0.49-2.67-1.7-3.33-1.33c-3.06,1.72-5.94,3.77-8.73,5.92
			c-0.92,0.71-1.35,2.05-2,3.11C177.55,44.29,178.62,44.29,181.38,44.29z M195.96,75.16c-1.1-2.3-1.67-3.51-2.25-4.71
			c-1.89,1.61-4.21,2.96-5.44,4.98c-0.41,0.68,1.94,3.05,3.03,4.64C192.86,78.43,194.42,76.79,195.96,75.16z"/>
		<path class="st2" d="M176.01,74.08c0.5,0.01,0.99,0.04,1.49,0.04c8.6,0.03,8.47,0.06,10.48,8.95c0.4,1.79,2.06,4.59,3.29,4.67
			c5.34,0.35,5.85,5.27,8.64,7.96c1.92,1.85,4.01,3.87,6.41,4.8c2.29,0.88,5.11,0.72,7.64,0.46c0.98-0.1,2.69-1.84,2.57-2.58
			c-0.57-3.49-1.66-6.9-2.57-10.34c0.01-1.34,0.02-2.67,0.03-4.01c0.89,2.16,1.9,4.28,2.64,6.49c1.5,4.49,2.86,9.03,4.27,13.55
			c0.08,1.49,0.17,2.99,0.25,4.48c-1.27-0.48-2.52-1.03-3.82-1.41c-0.92-0.27-1.9-0.29-2.85-0.43c0,0-0.25-0.2-0.25-0.2
			c-0.8-0.45-1.59-0.91-2.39-1.37c-3.64-0.99-7.28-1.97-10.93-2.96c-1.7-1.67-3.31-3.43-5.12-4.97c-2.17-1.84-4.65-3.32-6.71-5.27
			c-1.91-1.8-3.73-3.83-5.06-6.08c-0.97-1.64-1.1-3.78-1.6-5.69c-1.89,1.2-3.85,2.3-5.64,3.62c-1.04,0.77-2.47,1.83-2.58,2.87
			c-0.23,2.25,0.29,4.57,0.51,6.86c5.5-0.77,8.49,0.22,7.87,7.18c-0.22,2.46,4.12,5.49,6.65,7.98c8.42,8.32,15.59,17.48,18.65,29.13
			c0.72,2.74,0.86,7.32-0.71,8.57c-2.24,1.79-6.3,1.43-9.6,1.74c-3.17,0.29-6.36,0.25-9.55,0.36c-1.12,0.04-2.25,0-3.35,0.18
			c-1.95,0.32-4.47,0.15-5.72,1.3c-6.68,6.14-15.99,5.08-20.86-2.76c-0.31-0.5-0.37-1.18-0.46-1.79c-0.24-1.64-0.44-3.28-0.65-4.92
			c-1.76,0.77-3.51,1.53-5.26,2.3c-2.22,0.78-4.44,1.56-6.66,2.34c-0.36-0.07-0.73-0.14-1.09-0.22c3.34-4.3,6.69-8.6,10.03-12.9
			c0.35-0.99,0.71-1.98,1.06-2.96c2.84-3.45,5.87-4.72,10.27-2.18c1.71,0.99,4.71,0.85,6.68,0.09c6.26-2.41,10.16,1.11,14.02,4.92
			c0.56,0.55,0.49,1.77,0.62,2.7c0.53,3.69,1.9,6.35,6.28,6.49c2.39,0.08,4.81,1.39,7.12,1.15c1.66-0.17,4.64-2.65,4.49-2.98
			c-2.15-4.85-4.22-9.91-7.47-14.01c-1.08-1.37-5.62-0.78-8.23,0.03c-4.65,1.44-6.56-1.85-8.3-4.51c-0.93-1.42-0.48-4.43,0.4-6.2
			c1.42-2.89,1.54-4.44-2.13-4.5c-3.83-0.07-7.69-0.32-11.47,0.13c-1.51,0.18-3.9,1.93-4.02,3.15c-0.46,4.68-3.81,4.88-6.82,4.53
			c-7.99-0.94-13.92-5.59-18.67-11.8c-0.5-0.65-0.02-2.05,0.01-3.1c1.02,0.12,2.08,0.09,3.05,0.39c4.57,1.41,9.04,3.8,13.67,4.15
			c4.94,0.37,10.05-1.03,15.02-1.98c0.63-0.12,1.61-2.68,1.21-3.24c-3.97-5.58-8.65-10.7-12.23-16.51
			c-4.05-6.57-0.18-14.05,7.19-15.67c2.98-0.66,3.42,0.61,3.27,2.96C170.74,77.51,173.61,74.14,176.01,74.08z M170.97,146.01
			c2.81-2.06,5.19-3.66,7.38-5.49c0.65-0.54,0.79-1.7,1.16-2.58c-0.86-0.31-1.71-0.85-2.59-0.9c-2.97-0.17-5.95-0.22-8.93-0.2
			c-1.18,0.01-3.08-0.03-3.36,0.56c-0.44,0.95-0.23,2.77,0.46,3.57C166.64,142.73,168.65,144.08,170.97,146.01z M170.56,85.29
			c1.8-2.41,3.08-4.12,4.36-5.84c-0.74-0.41-1.85-1.35-2.16-1.13c-1.67,1.15-3.17,2.56-4.6,4.01
			C168.08,82.41,169.28,83.73,170.56,85.29z"/>
		<path class="st1" d="M151.71,142.8c1.75-0.77,3.51-1.53,5.26-2.3c0.21,1.64,0.41,3.28,0.65,4.92c0.09,0.61,0.14,1.29,0.46,1.79
			c4.88,7.83,14.18,8.9,20.86,2.76c1.25-1.15,3.77-0.98,5.72-1.3c1.1-0.18,2.23-0.14,3.35-0.18c3.18-0.11,6.38-0.07,9.55-0.36
			c3.3-0.3,7.36,0.05,9.6-1.74c1.57-1.25,1.43-5.83,0.71-8.57c-3.06-11.64-10.23-20.8-18.65-29.13c-2.53-2.5-6.87-5.53-6.65-7.98
			c0.62-6.95-2.38-7.94-7.87-7.18c-0.21-2.29-0.73-4.61-0.51-6.86c0.1-1.04,1.54-2.1,2.58-2.87c1.79-1.33,3.75-2.43,5.64-3.62
			c0.5,1.91,0.63,4.06,1.6,5.69c1.33,2.24,3.15,4.28,5.06,6.08c2.06,1.94,4.55,3.42,6.71,5.27c1.81,1.54,3.42,3.3,5.12,4.97
			c-9.36,2.23-10.04,2.77-4.26,10.23c3.98,5.14,10.03,8.8,15.49,12.64c2.54,1.78,4.81,2.36,2.52,6.28
			c-1.45,2.49-1.34,5.96-1.67,9.02c-0.57,5.28-8.28,12.48-13.42,12.34c-11.25-0.3-12.61,0.57-15.5,11.71
			c-1.65,6.37-3.28,12.58-8.76,16.93c-2.2,1.74,0.09,5.46-4.25,7.16c-5,1.95-7.86,1.06-11.59-1.98c-2.31-1.88-5.77-2.28-8.52-3.73
			c-1.23-0.65-1.97-2.23-2.93-3.39c1.15-0.82,2.24-2.24,3.45-2.36c10.7-1.05,19.43-5.35,25.04-14.81c0.42-0.72-0.52-2.48-1.2-3.52
			c-0.34-0.52-1.58-0.81-2.3-0.65c-7.57,1.65-11.45-3.97-15.98-8.15c-1.09-1-1.23-2.97-2.14-4.25
			C154.08,144.52,152.79,143.74,151.71,142.8z"/>
		<path class="st4" d="M190.11,18.32c2.51,2.96,5.51,5.64,7.41,8.96c3.49,6.08,6.55,12.44,9.31,18.89c0.92,2.15,0.34,4.94,0.44,7.43
			c-3.34-1.22-5.72,4.63-10.48,0.2c-3.21-2.98-5.27-4.78-4.39-8.92c0.36-1.71,0.85-3.66,1.95-4.91c2.48-2.8,2.18-4.46-1.23-5.98
			c-8.72-3.87-12.36-2.61-18.25,4.87c-2.02,2.56-6.41,3.14-8.82,5.53c-2.49,2.46-5.2,5.92-5.47,9.13c-0.4,4.77,3.04,7.92,8.15,8.59
			c0.67,0.09,1.27,0.75,1.91,1.14c-1.16,1.38-2.13,3.01-3.55,4.04c-1,0.73-3.36,1.32-3.8,0.81c-2.68-3.05-4.98-2.37-7.78-0.23
			c-0.63,0.48-2.39-0.33-3.53-0.8c-0.45-0.18-0.6-1.53-0.91-1.54c-10.75-0.28-2.52-5.34-2.14-8.39c0.04-0.33,0.08-0.66,0.12-0.99
			c0.72-1.68,1.44-3.35,2.15-5.03c0.64-0.91,1.35-1.77,1.89-2.73c3.61-6.42,7.18-12.87,10.76-19.31c-0.02,1.58-0.2,3.17-0.02,4.73
			c0.12,1.11,0.72,2.17,1.1,3.25c2.66-1.22,7.1-1.88,7.68-3.74C175.4,24.39,183.22,22.04,190.11,18.32z"/>
		<path class="st3" d="M70.4,60.86c0.25,0.04,0.44,0.16,0.58,0.38c1.11,0.9,2.21,1.79,3.31,2.69c0.27,0,0.5,0.1,0.68,0.31
			c0.93,2.09,2.2,4.1,2.71,6.29c1.12,4.8,2.72,7,7.66,3.27c1.21-0.92,3.92,0.14,5.94,0.29c-0.75,1.46-1.13,3.56-2.32,4.23
			c-2.35,1.32-5.24,1.64-7.72,2.76c-2.21,1-4.18,2.53-6.25,3.82l-0.09,0.07c-3.15,1.53-6.95-3.51-9.91,0.95
			c-0.15,0.23-2.29-0.25-2.52-0.8c-1.18-2.86-2.13-5.82-2.83-8.83c-0.06-0.25,2.41-0.92,3.5-1.69c0.52-0.37,1-1.7,0.73-2.12
			c-2.81-4.55-5.13-9.66-8.87-13.29c-3.44-3.34-8.33-5.31-12.83-7.35c-1.52-0.69-5.45,0.25-5.45,0.42c0.06,6.08-5.05,4.45-8.18,5.67
			c-0.18-0.59-0.36-1.17-0.53-1.76c-0.01-0.74-0.01-1.49-0.02-2.23c-1.11-5.1-2.62-10.16-3.05-15.32c-0.1-1.24,3.67-4.27,5.12-3.95
			C40.36,36.88,48.71,42.73,56.13,50c-1.69-0.86-3.37-1.77-5.09-2.57c-0.79-0.37-1.68-0.52-2.52-0.77c0.31,0.84,0.38,1.92,0.96,2.48
			c3.17,3.04,6.52,5.89,9.71,8.91c3.94,3.72,4.01,0.8,4.07-2.28c0.93,0.75,1.85,1.49,2.78,2.24C67.5,58.96,68.95,59.91,70.4,60.86z
			 M36.29,43.55c0.02-0.16,0.05-0.32,0.07-0.48c1.62,0.24,3.24,0.52,4.87,0.71c0.44,0.05,1.31-0.16,1.32-0.28
			c0.03-0.59-0.01-1.61-0.32-1.73c-4.18-1.66-8.36-3.38-12.68-4.57c-0.75-0.21-2.17,1.98-3.28,3.06c1.07,0.76,2.04,1.86,3.23,2.19
			C31.7,43.05,34.02,43.2,36.29,43.55z"/>
		<path class="st2" d="M28.55,57.93c3.13-1.21,8.23,0.41,8.18-5.67c0-0.17,3.93-1.11,5.45-0.42c4.49,2.05,9.39,4.02,12.83,7.35
			c3.74,3.63,6.06,8.74,8.87,13.29c0.26,0.43-0.22,1.76-0.73,2.12c-1.09,0.77-3.56,1.44-3.5,1.69c0.7,3.01,1.65,5.97,2.83,8.83
			c0.23,0.56,2.37,1.03,2.52,0.8c2.97-4.46,6.76,0.58,9.91-0.95c-3.57,6.27-8.99,10.12-15.87,12.03c-0.05-3.04,0.46-6.22-0.29-9.08
			c-1.27-4.86-3.84-2.87-6.91-1.15c-1.4,0.78-4.15-0.87-6.3-1.39c-1.09-0.27-2.2-0.48-3.3-0.71c0.5-0.9,1.06-1.77,1.48-2.71
			c0.33-0.74,0.49-1.55,0.73-2.33c-2.24,0.34-4.5,0.62-6.69,1.16c-0.16,0.04-0.1,2.1,0.29,3.05c2.08,5.04,7.37,8.8,6.02,15.19
			c-1.18,5.57-0.82,9.23,6.08,5.05c-1.39,1.92-2.85,3.8-4.15,5.78c-2.39,3.62-3.42,1.63-4.35-0.98c1.44-9.5-1.78-17.93-5.89-26.2
			c-0.86-1.73-1.11-3.76-1.65-5.65c4.96-1.4,9.94-2.78,14.87-4.27c0.4-0.12,0.93-1.36,0.77-1.54c-0.69-0.8-1.5-1.72-2.46-2.03
			c-3.41-1.12-7.4-1.26-10.24-3.16c-5.73-3.82-6.25-1.45-5.51,3.65C30.54,65.76,29.55,61.85,28.55,57.93z M47.16,63.4
			c-0.69-7.27-5.49-4.51-8-5.57c-0.56-0.24-1.97,1.55-2.99,2.4c2.1,1.61,4.04,3.58,6.39,4.66C43.58,65.37,45.45,64.01,47.16,63.4z"
			/>
		<path class="st1" d="M192.48,201.38c-2.33-0.47-4.66-0.94-7-1.41c2.09-1.7,4.14-3.45,6.28-5.07c2.19-1.65,4.51-3.13,6.73-4.74
			c4.35-3.15,8.88-6.11,12.94-9.59c2.29-1.97,3.62-5.02,5.74-7.24c3.29-3.44,7.35-6.24,10.23-9.97c2.48-3.22,3.65-7.42,5.62-11.07
			c0.67-1.25,2.74-3.19,2.88-3.09c2.61,1.94,5.17,4.02,7.31,6.45c0.29,0.33-1.84,2.6-2.6,4.1c-1.67,3.28-3.03,6.72-4.8,9.94
			c-0.89,1.63-2.27,3.05-3.63,4.35c-5.53,5.31-10.92,10.79-16.8,15.69c-3.41,2.85-7.62,4.76-11.53,6.99
			c-3.46,1.97-7.01,3.8-10.52,5.7C193.05,202.06,192.76,201.72,192.48,201.38z M232.88,165.29c-0.77,0.31-1.12,0.37-1.37,0.56
			c-3.35,2.53-6.72,5.02-9.97,7.67c-0.44,0.36-0.34,1.57-0.18,2.33c0.06,0.26,1.33,0.64,1.58,0.42c3.48-2.98,6.89-6.02,10.24-9.14
			C233.42,166.9,233,165.98,232.88,165.29z"/>
		<path class="st2" d="M104.28,90.06c0.56,1.7,1.13,3.4,1.69,5.1c2.74,8.4,2.88,8.06,11.3,5.31c3.52-1.15,8.18-0.59,11.63,0.84
			c1.11,0.46,0.99,6.73-0.36,9.46c-1.62,3.3-5.34,5.5-7.78,8.49c-1.6,1.96-2.72,4.39-3.68,6.76c-0.9,2.23-1.3,4.66-1.92,7.01
			c-0.81-4.67,1.34-10.76-5.93-12.33c-0.8-1.82-1.6-3.63-2.39-5.45c-0.96-3.98-1.86-7.96-2.93-11.91c-0.16-0.59-1.1-0.97-1.67-1.44
			c0.26-3.92,0.53-7.85,0.79-11.78C103.45,90.1,103.86,90.08,104.28,90.06z M108.97,113.62c1.8,1.31,3.89,3.44,4.4,3.11
			c2.36-1.52,4.27-3.72,6.35-5.67c-2.32-1.8-4.63-3.59-6.95-5.39C111.65,108.02,110.52,110.38,108.97,113.62z"/>
		<path class="st5" d="M190.11,18.32c-6.89,3.72-14.71,6.07-17.5,15.01c-0.58,1.87-5.02,2.53-7.68,3.74
			c-0.38-1.08-0.98-2.14-1.1-3.25c-0.17-1.56,0-3.15,0.02-4.73c0.02-0.7,0.05-1.41,0.07-2.11c1.33-1.96,2.65-3.92,3.98-5.88
			c2.15-1.7,4.13-3.7,6.49-5.02c3.07-1.71,6.34-3.66,9.7-4.07C187.86,11.55,190.87,13.57,190.11,18.32z"/>
		<path class="st1" d="M41.64,108.88c0.93,2.61,1.96,4.6,4.35,0.98c1.31-1.98,2.76-3.86,4.15-5.78c2.97-2.36,5.93-4.71,8.9-7.07
			c6.88-1.91,12.3-5.75,15.87-12.03c0,0,0.09-0.07,0.09-0.07c6.69-1.31,13.38-2.61,20.07-3.92c-1.01,2.54-1.86,5.16-3.09,7.58
			c-0.61,1.2-1.93,2.03-2.93,3.03c-0.36-1.17-0.58-2.41-1.12-3.5c-0.36-0.71-1.25-1.76-1.77-1.69c-4.69,0.63-11.07,7.2-12.14,12.21
			c-0.17,0.78-0.35,1.74-0.89,2.21c-0.9,0.81-2.09,1.31-3.16,1.94c0.08-1.21,0.01-2.46,0.28-3.63c0.26-1.16,0.86-2.23,1.31-3.35
			c-1,0.31-2.01,0.6-3.01,0.92c-9.5,3-17.32,8.05-22.12,17.23c-0.5,0.97-3.29,0.74-5.02,1.07
			C41.49,112.97,41.56,110.93,41.64,108.88z"/>
		<path class="st2" d="M32.27,146.94c0.01-2.95,0.01-5.91,0.02-8.86c0.31-0.97,0.63-1.93,0.95-2.9c0,0,0-0.01,0-0.01
			c4.84-0.87,9.68-2.44,14.51-2.39c4.15,0.04,8.29,1.93,12.43,3.01c-2,0.26-4,0.52-6,0.78c-3.3,0.2-6.6,0.4-9.9,0.59
			c-1.78-0.39-3.89-1.54-5.25-0.96c-1.66,0.71-3.01,2.74-3.85,4.5c-0.4,0.83,0.7,2.37,1.11,3.59c4.2-3.15,5.98,0.8,8.4,2.86
			c9.26,8.67,19.46,9.83,30.56,3.85c0.27,0.36,0.55,0.72,0.82,1.08c-0.1,0.21-0.16,0.44-0.18,0.67c-0.27,0.43-0.53,0.86-0.8,1.29
			c0,0,0.01-0.01,0.01-0.01c-2.01,0.63-4.02,1.27-6.04,1.9c-7.96,0.63-15.65-0.22-22.82-4.04c-2.03-0.56-4.25-1.9-6.03-1.47
			c-1.67,0.41-2.87,2.7-4.28,4.16c-0.85-1.82-1.7-3.65-2.56-5.47C33.01,148.37,32.63,147.66,32.27,146.94z"/>
		<path class="st2" d="M95.06,80.99c-6.69,1.31-13.38,2.61-20.07,3.92c2.07-1.3,4.04-2.82,6.25-3.82c2.49-1.12,5.38-1.44,7.72-2.76
			c1.19-0.67,1.57-2.78,2.32-4.23c-2.02-0.15-4.73-1.21-5.94-0.29c-4.94,3.73-6.54,1.54-7.66-3.27c-0.51-2.19-1.78-4.2-2.71-6.29
			c4.9,3.28,10.24,4.3,16.01,3.1c1.7,0.07,3.4,0.13,5.1,0.2c0.62-0.04,1.24-0.07,1.87-0.11c2.35,0.75,4.75,1.21,2.19,4.61
			c-1.79,2.38-2.85,5.31-4.23,8C95.63,80.35,95.35,80.67,95.06,80.99z"/>
		<path class="st1" d="M76.05,152.07c-0.27-0.36-0.55-0.72-0.82-1.08c0.09-0.82,0.17-1.64,0.26-2.45c0.03-1.15,0.06-2.29,0.1-3.44
			c1.1-3.84-1.31-4.83-4.33-5.34c-2.01-1.09-4.01-2.18-6.02-3.27c-0.76-0.09-1.52-0.19-2.27-0.28c-0.93-0.14-1.86-0.28-2.79-0.43
			c-4.14-1.07-8.28-2.97-12.43-3.01c-4.83-0.05-9.67,1.52-14.51,2.39c1.87-4.01,3.07-7.32,9.49-5.78c9.04,2.17,18.67,1.79,27.9,3.36
			c3.29,0.56,7.56,2.94,8.89,5.69C81.78,143.13,82.11,148.79,76.05,152.07z"/>
		<path class="st1" d="M75.93,183.12c-0.86-2.1-2.75-4.47-2.27-6.2c0.44-1.62,3.25-3.27,5.26-3.66c6.74-1.33,13.57-2.38,20.42-2.95
			c2.63-0.22,5.41,1.13,8.08,1.88c0.37,0.1,0.87,1.17,0.75,1.31c-1.93,2.28-3.95,4.48-5.95,6.7c-0.13-0.13-0.27-0.26-0.4-0.39
			c0.2-0.95,0.41-1.91,0.61-2.86c0.02-0.56,0.05-1.12,0.07-1.68c-0.83,0.22-1.66,0.44-2.49,0.66c-2.28,0.46-4.57,0.93-6.85,1.39
			c-0.67,0.58-1.34,1.15-2.01,1.73c0,0-0.05,0.06-0.05,0.06c-0.72,0.58-1.44,1.15-2.16,1.73c-2.57-0.69-5.17-1.3-7.71-2.09
			c-1.1-0.34-2.09-1.06-3.12-1.61c-0.59,1.33-1.18,2.65-1.76,3.98C76.21,181.78,76.07,182.45,75.93,183.12z"/>
		<path class="st1" d="M109.23,120.7c7.26,1.57,5.12,7.66,5.93,12.33c-0.1,1.96-0.2,3.92-0.3,5.88c0,1.07-0.01,2.13-0.01,3.2
			c-0.07,1.27-0.15,2.54-0.22,3.81c-0.23,1.98-0.75,4-0.5,5.91c0.06,0.47,2.72,1.12,4,0.84c6.91-1.5,13.75-3.26,20.62-4.93
			c0.12,0.13,0.24,0.25,0.35,0.38c-2.48,0.82-4.98,1.57-7.43,2.46c-4.01,1.46-8.1,2.78-11.95,4.6c-4.33,2.05-7.18,0.84-7.65-3.92
			C111.06,141.08,110.17,130.89,109.23,120.7z"/>
		<path class="st4" d="M213.99,84.02c-0.01,1.34-0.02,2.67-0.03,4.01c-1.07,0.29-1.76,6.25-3.33,0.19c-0.2-0.78-1.59-1.25-2.42-1.86
			c-0.4,0.81-0.71,1.68-1.21,2.43c-1.05,1.6-2.2,3.14-3.3,4.71c-1.22-0.98-3.46-1.94-3.47-2.94c-0.04-2.51,0.55-5.21,1.59-7.52
			c0.95-2.11,3.05-3.68,4.22-5.72c1.77-3.1,3.71-3.93,6.52-1.39C213.03,78.64,213.51,81.33,213.99,84.02z"/>
		<path class="st2" d="M142.97,64.02c-2.42,7.77-13.41,10.98-19.1,5.42c-3.18-3.1-5.87-2.86-9.11-0.15
			c-1.58,1.32-3.78,1.88-5.7,2.78c0.78-2.53,1.56-5.05,2.34-7.58c3.75-0.03,7.51-0.06,11.27-0.09c1.47,0.27,2.93,0.53,4.4,0.8
			c0.56,0.02,1.12,0.05,1.68,0.07c1.52,0.02,3.04,0.05,4.55,0.07c0.47,0,0.93,0,1.4,0c1.48-0.05,2.96-0.1,4.43-0.15
			C140.42,64.8,141.7,64.41,142.97,64.02z"/>
		<path class="st3" d="M75.93,183.12c0.14-0.67,0.28-1.34,0.41-2.01c2.5,0.6,5,1.58,7.52,1.65c1.67,0.04,3.38-1.23,5.07-1.92
			c0.72-0.58,1.44-1.15,2.16-1.73c0.12,2.77-1.2,6.5,3.96,5.89c-0.92,1.98-1.83,3.95-2.75,5.93c-1.27,2.51-2.53,5.04-6.12,3.99
			c-1.7-1.74-3.39-3.47-5.09-5.21c-0.26-0.27-0.52-0.53-0.78-0.8c-0.7-0.77-1.4-1.53-2.11-2.3c-0.01-0.2-0.09-0.37-0.24-0.51
			c-0.59-0.82-1.18-1.64-1.78-2.47C76.19,183.42,76.1,183.25,75.93,183.12z"/>
		<path class="st3" d="M31.54,69.68c-0.74-5.1-0.22-7.47,5.51-3.65c2.84,1.9,6.83,2.04,10.24,3.16c0.95,0.31,1.77,1.23,2.46,2.03
			c0.16,0.19-0.37,1.42-0.77,1.54c-4.94,1.49-9.91,2.86-14.87,4.27C33.25,74.58,32.39,72.13,31.54,69.68z"/>
		<path class="st1" d="M111.4,64.48c-0.78,2.53-1.56,5.05-2.34,7.58c-0.09,0.57-0.17,1.14-0.26,1.72c-0.86,2.08-1.73,4.16-2.59,6.24
			c-0.13,0.59-0.26,1.18-0.38,1.78c-0.68,1.14-1.36,2.28-2.04,3.42c-0.43-0.22-1.25-0.49-1.23-0.65c0.74-5.89-1.5-7.32-6.65-4.54
			c1.38-2.69,2.44-5.62,4.23-8c2.56-3.4,0.17-3.86-2.19-4.61C102.44,66.45,106.92,65.46,111.4,64.48z"/>
		<path class="st1" d="M53.46,178.12c0.31,0.08,1.19,0.18,1.19,0.32c0.14,3.2,0.63,6.5,0.03,9.57c-0.24,1.24-3.54,3.21-4.33,2.78
			c-2.05-1.11-3.5-3.36-5.15-5.19c-0.17-0.19-0.18-0.82-0.02-0.94C47.87,182.49,50.61,180.36,53.46,178.12z"/>
		<path class="st1" d="M214.47,106.71c0.95,0.13,1.94,0.16,2.85,0.43c1.3,0.38,2.55,0.93,3.82,1.41c-0.08-1.49-0.17-2.99-0.25-4.48
			c5.21,2.57,6.38,7.42,6.86,12.53c0.06,0.6-2.13,1.98-2.18,1.93C221.81,114.65,218.14,110.68,214.47,106.71z"/>
		<path class="st1" d="M32.27,146.94c0.36,0.72,0.73,1.43,1.08,2.16c0.86,1.82,1.71,3.65,2.56,5.47c1.41-1.46,2.62-3.75,4.28-4.16
			c1.78-0.44,4,0.9,6.03,1.47c-2.99,2.34-6.01,4.63-8.94,7.04c-0.78,0.64-1.27,1.64-1.9,2.47c-0.47-0.98-1.17-1.92-1.35-2.95
			C33.35,154.62,32.84,150.77,32.27,146.94z"/>
		<path class="st4" d="M63.28,55.77c-0.06,3.07-0.13,6-4.07,2.28c-3.19-3.02-6.54-5.87-9.71-8.91c-0.58-0.55-0.66-1.64-0.96-2.48
			c0.84,0.25,1.73,0.41,2.52,0.77c1.72,0.8,3.4,1.71,5.09,2.57C58.51,51.92,60.9,53.85,63.28,55.77z"/>
		<path class="st2" d="M163.92,26.99c-0.02,0.7-0.05,1.41-0.07,2.11c-3.58,6.44-7.16,12.89-10.77,19.31
			c-0.54,0.96-1.26,1.82-1.89,2.73C155.43,43.09,159.67,35.04,163.92,26.99z"/>
		<path class="st1" d="M174.9,207.68c-1.09-0.94-1.94-1.66-2.78-2.39c1.57-1.11,3.04-2.85,4.74-3.12c1.3-0.21,2.9,1.44,4.37,2.26
			C179.26,205.45,177.29,206.46,174.9,207.68z"/>
		<path class="st1" d="M102.24,101.9c0.58,0.47,1.51,0.85,1.67,1.44c1.07,3.94,1.97,7.93,2.93,11.91
			C101.71,113.08,99.72,107.3,102.24,101.9z"/>
		<path class="st1" d="M92.31,190.92c0.92-1.98,1.83-3.95,2.75-5.93c0.92-0.42,1.84-0.84,2.76-1.26c0.14,0.16,0.28,0.32,0.42,0.48
			c-0.95,3.15-1.89,6.31-2.84,9.46c-0.16,0.12-0.31,0.25-0.45,0.39C94.07,193.02,93.19,191.97,92.31,190.92z"/>
		<path class="st1" d="M69.04,155.92c2.01-0.63,4.02-1.27,6.04-1.9c-0.93,1.86-1.87,3.71-2.8,5.57
			C71.2,158.36,70.12,157.14,69.04,155.92z"/>
		<path class="st1" d="M96.09,67.54c-1.7-0.07-3.4-0.13-5.1-0.2C92.69,67.41,94.39,67.47,96.09,67.54z"/>
		<path class="st1" d="M133.3,65.34c-1.52-0.02-3.04-0.05-4.55-0.07C130.27,65.29,131.78,65.32,133.3,65.34z"/>
		<path class="st1" d="M127.06,65.2c-1.46-0.27-2.93-0.54-4.4-0.8C124.13,64.66,125.6,64.93,127.06,65.2z"/>
		<path class="st1" d="M139.14,65.19c-1.48,0.05-2.95,0.1-4.43,0.15C136.18,65.29,137.66,65.24,139.14,65.19z"/>
		<path class="st2" d="M70.4,60.86c-1.45-0.95-2.9-1.91-4.35-2.86C67.5,58.96,68.95,59.91,70.4,60.86z"/>
		<path class="st2" d="M74.3,63.93c-1.1-0.9-2.21-1.79-3.31-2.69C72.09,62.14,73.19,63.03,74.3,63.93z"/>
		<path class="st1" d="M101.28,181.22c-1.01,1-2.03,2-3.04,3c-0.14-0.16-0.28-0.32-0.42-0.48c1-0.99,2-1.98,3-2.96
			C100.97,180.92,101.12,181.07,101.28,181.22z"/>
		<path class="st2" d="M103.79,85.22c0.68-1.14,1.36-2.28,2.04-3.42c-0.47,1.41-0.94,2.82-1.41,4.23
			C104.21,85.76,104,85.49,103.79,85.22z"/>
		<path class="st1" d="M143.22,146.27c-1.37,0.61-2.75,1.23-4.12,1.84c-0.12-0.13-0.24-0.25-0.35-0.38c0.22-0.45,0.43-0.9,0.65-1.35
			c1.15-0.19,2.3-0.38,3.44-0.57C142.97,145.97,143.1,146.12,143.22,146.27z"/>
		<path class="st1" d="M33.24,135.17c-0.32,0.97-0.63,1.93-0.95,2.9C32.61,137.11,32.92,136.14,33.24,135.17z"/>
		<path class="st1" d="M211.83,105.14c0.8,0.46,1.59,0.92,2.39,1.37C213.43,106.05,212.63,105.59,211.83,105.14z"/>
		<path class="st1" d="M76.19,183.63c0.59,0.82,1.18,1.64,1.78,2.47C77.38,185.27,76.78,184.45,76.19,183.63z"/>
		<path class="st1" d="M78.21,186.6c0.7,0.77,1.4,1.53,2.11,2.3C79.62,188.14,78.91,187.37,78.21,186.6z"/>
		<path class="st1" d="M104.28,90.06c-0.41,0.02-0.83,0.04-1.24,0.06c0.24-0.76,0.49-1.52,0.73-2.29
			C103.94,88.58,104.11,89.32,104.28,90.06z"/>
		<path class="st1" d="M143.96,144.92c0.36,0.07,0.73,0.14,1.09,0.22c-0.61,0.38-1.22,0.76-1.83,1.14
			c-0.12-0.15-0.25-0.31-0.38-0.46C143.22,145.52,143.59,145.22,143.96,144.92z"/>
		<path class="st2" d="M28,53.95c0.01,0.74,0.01,1.48,0.02,2.23C28.01,55.43,28.01,54.69,28,53.95z"/>
		<path class="st1" d="M75.07,154.03c0.27-0.43,0.54-0.86,0.8-1.29C75.6,153.17,75.34,153.6,75.07,154.03z"/>
		<path class="st1" d="M102.23,180.19c-0.32,0.34-0.63,0.68-0.95,1.02c-0.15-0.15-0.31-0.29-0.46-0.44
			c0.34-0.32,0.67-0.64,1.01-0.97C101.96,179.93,102.09,180.06,102.23,180.19z"/>
		<path class="st2" d="M170.12,236.62c0.97,1.27,3.37,2.98,3.47,4.81c0.17,3.21-2.21,4.89-5.69,4.41c-1.74-0.24-3.52-0.12-5.26-0.37
			c-2.08-0.3-4.14-0.82-6.2-1.25c1.93-2.07,3.6-4.54,5.89-6.06C163.96,237.08,166.43,237.28,170.12,236.62z"/>
		<path class="st2" d="M199.87,243.16c-1.53,1.59-2.64,3.72-4.26,4.22c-3.53,1.09-7.31,1.36-10.99,1.96
			c1.94-2.57,3.59-5.47,5.93-7.61c1.81-1.65,4.45-2.46,6.85-3.27C197.62,238.39,198.76,241.02,199.87,243.16z"/>
		<path class="st2" d="M92.31,190.92c0.88,1.05,1.76,2.1,2.65,3.15c6.96,10.06,17.85,12.26,28.76,14.57
			c1.74,0.37,3.25,1.85,4.87,2.82c-1.66,0.81-3.28,2.2-5,2.33c-7.98,0.62-16,1.29-23.99,1.14c-5.93-0.11-11.89-1.22-17.7-2.49
			c-0.87-0.19-1.09-3.69-1.41-5.69c-0.07-0.41,1.27-1.18,1.16-1.43c-2.26-5.16,2.93-7,4.55-10.41
			C89.78,195.96,91.04,193.43,92.31,190.92z M95.62,210.64c2.39-0.16,5.94-0.33,9.47-0.68c1.17-0.12,2.3-0.7,3.45-1.06
			c-1.14-0.7-2.29-1.37-3.41-2.1c-3.7-2.41-7.26-5.05-11.14-7.12c-1.2-0.64-3.58-0.22-4.79,0.62c-1.18,0.82-1.5,2.84-2.29,4.28
			c-1.73,3.15-1.03,5.06,2.7,5.48C91.19,210.23,92.78,210.36,95.62,210.64z"/>
		<path class="st2" d="M138.11,205.89c7.76-0.07,9.24,3.6,6.81,11.07c-3.12,9.58-11.22,11.56-18.69,15
			c-1.26,0.58-2.3,1.67-3.41,2.55c-2.72,2.16-5.39,2.25-6.89-1.08c-0.43-0.95,0.97-3.3,2.14-4.29c4.72-3.99,9.78-7.58,14.47-11.6
			c0.82-0.71,1.06-3.11,0.52-4.22C130.08,207.15,130.8,205.96,138.11,205.89z"/>
		<path class="st5" d="M117.65,134.08c1.07-6.21,4.95-10.24,10.21-13.22c1.92-0.29,3.9-0.38,5.76-0.9c4.38-1.22,7.26-0.84,7.67,4.77
			c0.13,1.87,2.34,3.6,3.59,5.39c0.02,1.27,0.03,2.54,0.05,3.82c-0.28,0.69-0.57,1.39-0.85,2.08c-2.31,3.12-4.62,6.24-6.92,9.36
			c-2.41-0.04-4.81-0.08-7.22-0.11c-0.68-0.38-1.36-0.76-2.04-1.14C124.48,140.78,121.06,137.43,117.65,134.08z M127.55,123.6
			c-1.82,2.21-4.06,3.7-4.16,5.33c-0.15,2.44,0.79,5.2,2.01,7.42c1.87,3.4,5.01,6.14,8.9,3.6c2.37-1.55,5.46-6.63,5.06-7.04
			C136.14,129.61,132.17,127.04,127.55,123.6z"/>
		<path class="st2" d="M182.26,62.2c-4.68-0.82-9.1-1.04-13.04-2.54c-1.6-0.61-2.93-3.98-2.92-6.09c0-1.45,2.31-3.78,3.95-4.16
			c3.44-0.81,7.12-0.64,10.7-0.75c0.58-0.02,1.18,0.6,1.78,0.92c-0.56,0.48-1.05,1.13-1.7,1.42c-2.47,1.13-4.99,2.14-7.5,3.2
			c2.67-0.03,5.34-0.2,8-0.04c3.78,0.21,7.58,0.49,11.3,1.12c1.02,0.17,1.81,1.69,2.7,2.59c-1.01,0.71-1.93,1.75-3.05,2.06
			C188.99,60.85,185.41,61.51,182.26,62.2z"/>
		<path class="st4" d="M146.04,91.05c-2.24-1.21-4.48-1.81-4.52-2.54c-0.45-7.37-3.2-2.06-5.31-1.15c-1.53,0.66-3.33,1.39-4.83,1.11
			c-0.92-0.17-1.5-2.19-2.23-3.38c1.32-0.77,2.6-1.62,3.97-2.29c3.92-1.91,7.73-4.18,11.85-5.44c2.97-0.91,6.37-0.43,9.58-0.57
			c-0.78,2.88-1.04,6.05-2.49,8.54C150.74,87.61,148.13,89.14,146.04,91.05z"/>
		<path class="st4" d="M144.87,130.12c-1.26-1.79-3.46-3.52-3.59-5.39c-0.4-5.61-3.29-5.99-7.67-4.77c-1.86,0.52-3.84,0.61-5.76,0.9
			c2.27-1.31,4.47-3.54,6.82-3.72c4.18-0.31,8.52,0.27,12.66,1.13c6.74,1.39,8.24,3.79,7.72,10.78c-0.35,0.99-0.7,1.98-1.06,2.96
			c-1.68-0.87-3.46-1.59-5-2.67c-1.48-1.04-2.71-2.46-4.04-3.71C144.93,127.13,144.9,128.63,144.87,130.12z"/>
		<path class="st4" d="M117.65,134.08c3.42,3.35,6.83,6.7,10.25,10.05c-0.93,1.31-1.86,2.62-2.78,3.94
			c-2.07-0.21-4.13-0.42-6.2-0.64c-1.36-1.78-2.71-3.55-4.07-5.33c0-1.07,0.01-2.13,0.01-3.2
			C115.79,137.3,116.72,135.69,117.65,134.08z"/>
		<path class="st4" d="M176.01,74.08c-2.4,0.07-5.27,3.44-7.01-1.01c0.69-0.96,1.65-1.83,2.01-2.9c1.71-5.04,6.07-6.92,10.62-4.23
			c0.97,0.57,2.11,1.96,2.04,2.88c-0.07,0.82-1.66,1.58-2.66,2.24C179.37,72.11,177.67,73.07,176.01,74.08z"/>
		<path class="st2" d="M181.38,44.29c-2.76,0-3.83,0-4.89,0c0.65-1.05,1.08-2.4,2-3.11c2.78-2.15,5.67-4.2,8.73-5.92
			c0.65-0.37,2.19,0.85,3.33,1.33c-0.52,0.95-0.81,2.21-1.6,2.78C186.14,41.37,183.17,43.14,181.38,44.29z"/>
		<path class="st4" d="M195.96,75.16c-1.54,1.63-3.1,3.27-4.66,4.91c-1.09-1.6-3.44-3.96-3.03-4.64c1.23-2.02,3.55-3.37,5.44-4.98
			C194.29,71.65,194.86,72.86,195.96,75.16z"/>
		<path class="st2" d="M106.21,80.02c0.87-2.08,1.73-4.16,2.59-6.24C107.94,75.86,107.07,77.94,106.21,80.02z"/>
		<path class="st3" d="M144.87,130.12c0.03-1.5,0.05-2.99,0.08-4.49c1.34,1.25,2.56,2.67,4.04,3.71c1.53,1.08,3.32,1.79,5,2.67
			c-3.34,4.3-6.69,8.6-10.03,12.9c-0.37,0.3-0.74,0.6-1.12,0.9c-1.15,0.19-2.3,0.38-3.45,0.57c-0.75-0.33-1.5-0.66-2.25-1
			c2.31-3.12,4.62-6.24,6.92-9.36c0.28-0.69,0.57-1.39,0.85-2.08C144.91,132.67,144.89,131.4,144.87,130.12z"/>
		<path class="st3" d="M170.97,146.01c-2.32-1.93-4.33-3.28-5.87-5.04c-0.69-0.79-0.9-2.62-0.46-3.57c0.28-0.59,2.18-0.56,3.36-0.56
			c2.98-0.02,5.96,0.03,8.93,0.2c0.88,0.05,1.73,0.59,2.59,0.9c-0.37,0.88-0.51,2.04-1.16,2.58
			C176.16,142.35,173.78,143.95,170.97,146.01z"/>
		<path class="st1" d="M170.56,85.29c-1.28-1.57-2.47-2.88-2.4-2.96c1.42-1.45,2.93-2.86,4.6-4.01c0.31-0.22,1.42,0.72,2.16,1.13
			C173.64,81.17,172.36,82.88,170.56,85.29z"/>
		<path class="st4" d="M36.29,43.55c-2.27-0.34-4.58-0.5-6.78-1.11c-1.19-0.33-2.16-1.44-3.23-2.19c1.11-1.08,2.52-3.26,3.28-3.06
			c4.32,1.19,8.5,2.91,12.68,4.57c0.31,0.12,0.34,1.14,0.32,1.73c-0.01,0.12-0.87,0.33-1.32,0.28c-1.63-0.19-3.25-0.46-4.87-0.71
			C36.34,43.22,36.31,43.38,36.29,43.55z"/>
		<path class="st3" d="M59.04,97.01c-2.97,2.36-5.93,4.71-8.9,7.07c-6.9,4.18-7.25,0.51-6.08-5.05c1.35-6.39-3.94-10.16-6.02-15.19
			c-0.39-0.94-0.45-3.01-0.29-3.05c2.19-0.54,4.45-0.82,6.69-1.16c-0.24,0.78-0.4,1.59-0.73,2.33c-0.42,0.94-0.98,1.81-1.48,2.71
			c1.1,0.24,2.21,0.45,3.3,0.71c2.15,0.52,4.9,2.17,6.3,1.39c3.07-1.72,5.64-3.71,6.91,1.15C59.49,90.79,58.98,93.97,59.04,97.01z"
			/>
		<path class="st1" d="M47.16,63.4c-1.71,0.61-3.58,1.96-4.61,1.49c-2.35-1.08-4.28-3.05-6.39-4.66c1.02-0.85,2.43-2.64,2.99-2.4
			C41.67,58.89,46.47,56.14,47.16,63.4z"/>
		<path class="st2" d="M232.88,165.29c0.13,0.69,0.54,1.61,0.3,1.84c-3.35,3.12-6.77,6.17-10.24,9.14
			c-0.25,0.22-1.52-0.16-1.58-0.42c-0.16-0.75-0.26-1.97,0.18-2.33c3.25-2.65,6.62-5.14,9.97-7.67
			C231.76,165.65,232.11,165.59,232.88,165.29z"/>
		<path class="st3" d="M108.97,113.62c1.55-3.24,2.68-5.6,3.8-7.95c2.32,1.8,4.63,3.59,6.95,5.39c-2.08,1.95-3.99,4.16-6.35,5.67
			C112.86,117.06,110.77,114.93,108.97,113.62z"/>
		<path class="st5" d="M75.49,148.53c-0.09,0.82-0.17,1.64-0.26,2.46c-11.1,5.98-21.3,4.82-30.55-3.85
			c-0.14-3.33-0.27-6.66-0.41-9.99c3.3-0.2,6.6-0.4,9.9-0.6c-0.38,2.95-1.64,6.15-0.87,8.76c0.74,2.54,3.19,5.52,5.58,6.39
			c2.97,1.08,7.21,1.37,8.23-3.66c0.33-2.02,0.65-4.04,0.98-6.05c0.07-0.44,0.15-0.87,0.22-1.31c0.91,0.1,1.83,0.21,2.74,0.31
			c0.55,0.62,1.11,1.25,1.66,1.87C73.64,144.75,74.57,146.64,75.49,148.53z"/>
		<path class="st6" d="M67.11,148.04c-1.02,5.04-5.26,4.74-8.23,3.66c-2.39-0.87-4.84-3.85-5.58-6.39c-0.77-2.61,0.5-5.82,0.87-8.76
			c2-0.26,4-0.52,6-0.78c0.93,0.14,1.86,0.28,2.79,0.43c-0.17,0.29-0.14,0.56,0.08,0.81c-0.37,0.34-0.74,0.68-1.11,1.02
			c-4.59,0.61-5.95,3.31-4.06,7.31C60.03,149.89,63.03,150.58,67.11,148.04z"/>
		<path class="st3" d="M44.27,137.15c0.14,3.33,0.28,6.66,0.41,9.99c-2.42-2.06-4.2-6.01-8.4-2.86c-0.42-1.22-1.51-2.76-1.11-3.59
			c0.85-1.76,2.19-3.79,3.85-4.5C40.38,135.6,42.49,136.76,44.27,137.15z"/>
		<path class="st2" d="M72.71,142.86c-0.55-0.62-1.11-1.25-1.66-1.87c0.07-0.41,0.14-0.82,0.21-1.23c3.02,0.5,5.42,1.5,4.32,5.34
			C74.63,144.35,73.67,143.61,72.71,142.86z"/>
		<path class="st3" d="M72.71,142.86c0.96,0.74,1.91,1.49,2.87,2.23c-0.03,1.15-0.06,2.29-0.09,3.44
			C74.57,146.64,73.64,144.75,72.71,142.86z"/>
		<path class="st3" d="M71.26,139.76c-0.07,0.41-0.14,0.82-0.21,1.23c-0.91-0.1-1.83-0.21-2.74-0.31c-0.73-0.28-1.46-0.56-2.19-0.85
			c-0.03-0.28-0.06-0.57-0.08-0.85c-0.33-0.62-0.67-1.24-1-1.87c0.07-0.21,0.14-0.42,0.2-0.64
			C67.25,137.57,69.25,138.67,71.26,139.76z"/>
		<path class="st2" d="M63.05,137.01c-0.23-0.25-0.25-0.52-0.08-0.81c0.76,0.09,1.51,0.19,2.27,0.28c-0.07,0.21-0.13,0.42-0.2,0.64
			C64.38,137.08,63.71,137.05,63.05,137.01z"/>
		<path class="st4" d="M101.82,179.81c-0.34,0.32-0.67,0.64-1.01,0.97c-1,0.99-2,1.98-3,2.96c-0.92,0.42-1.84,0.84-2.76,1.26
			c-5.16,0.62-3.83-3.12-3.96-5.89c0,0,0.05-0.06,0.05-0.06c0.67-0.58,1.34-1.15,2.01-1.73c2.28-0.46,4.57-0.93,6.85-1.39
			c0.81,0.34,1.61,0.68,2.42,1.02C102.23,177.9,102.03,178.85,101.82,179.81z"/>
		<path class="st2" d="M88.94,180.84c-1.69,0.69-3.4,1.96-5.07,1.92c-2.52-0.07-5.02-1.05-7.52-1.65c0.59-1.33,1.18-2.65,1.77-3.98
			c1.04,0.55,2.02,1.27,3.12,1.61C83.77,179.54,86.36,180.15,88.94,180.84z"/>
		<path class="st3" d="M102.43,176.95c-0.81-0.34-1.61-0.68-2.42-1.02c0.83-0.22,1.66-0.44,2.49-0.66
			C102.48,175.83,102.46,176.39,102.43,176.95z"/>
		<path class="st3" d="M93.16,177.32c-0.67,0.58-1.34,1.15-2.01,1.73C91.82,178.47,92.49,177.89,93.16,177.32z"/>
		<path class="st2" d="M137.15,145.39c0.75,0.33,1.5,0.66,2.25,1c-0.21,0.45-0.43,0.9-0.65,1.35c-6.87,1.67-13.72,3.43-20.62,4.93
			c-1.28,0.28-3.93-0.37-4-0.84c-0.25-1.92,0.26-3.93,0.5-5.91c1.43,0.51,2.86,1.01,4.29,1.52c2.07,0.21,4.13,0.42,6.2,0.63
			c1.61-0.93,3.22-1.87,4.83-2.8C132.34,145.31,134.75,145.35,137.15,145.39z"/>
		<path class="st3" d="M118.92,147.44c-1.43-0.51-2.86-1.01-4.29-1.52c0.07-1.27,0.15-2.54,0.22-3.81
			C116.2,143.88,117.56,145.66,118.92,147.44z"/>
		<path class="st3" d="M95.62,210.64c-2.84-0.28-4.42-0.41-6.01-0.59c-3.73-0.42-4.43-2.33-2.7-5.48c0.79-1.44,1.11-3.45,2.29-4.28
			c1.21-0.84,3.59-1.26,4.79-0.62c3.88,2.07,7.44,4.71,11.14,7.12c1.12,0.73,2.27,1.4,3.41,2.1c-1.15,0.37-2.28,0.95-3.45,1.06
			C101.56,210.3,98.01,210.47,95.62,210.64z"/>
		<path class="st6" d="M127.55,123.6c4.61,3.44,8.59,6.01,11.81,9.31c0.4,0.41-2.69,5.5-5.06,7.04c-3.89,2.54-7.03-0.2-8.9-3.6
			c-1.22-2.22-2.16-4.98-2.01-7.42C123.5,127.3,125.73,125.8,127.55,123.6z"/>
		<path class="st3" d="M129.94,145.27c-1.61,0.93-3.22,1.86-4.83,2.8c0.93-1.31,1.86-2.62,2.79-3.94
			C128.58,144.51,129.26,144.89,129.94,145.27z"/>
		<path class="st4" d="M144.92,133.94c-0.28,0.69-0.57,1.39-0.85,2.08C144.36,135.33,144.64,134.64,144.92,133.94z"/>
		<path class="st7" d="M66.04,138.99c0.02,0.28,0.05,0.57,0.08,0.85c0.66,0.72,1.31,1.43,1.97,2.15c-0.33,2.02-0.66,4.04-0.98,6.05
			c-4.08,2.54-7.08,1.85-9.23-2.7c-1.89-4-0.53-6.7,4.06-7.31C63.31,138.35,64.68,138.67,66.04,138.99z"/>
		<path class="st6" d="M68.09,141.99c-0.66-0.72-1.31-1.43-1.97-2.15c0.73,0.28,1.46,0.56,2.19,0.85
			C68.24,141.12,68.16,141.55,68.09,141.99z"/>
		<path class="st4" d="M66.04,138.99c-1.37-0.32-2.73-0.64-4.1-0.95c0.37-0.34,0.74-0.68,1.11-1.02c0.66,0.03,1.33,0.07,1.99,0.1
			C65.37,137.74,65.71,138.36,66.04,138.99z"/>
	</g>
</g>
</svg>
